<svg width="48" height="48" fill="none" xmlns="http://www.w3.org/2000/svg"><path stroke="#030322" stroke-width="2" d="M28 22h14v22H28z"/><circle cx="35" cy="40" r="1" fill="#030322"/><path d="M31 31.535l1.414-1.414 3.536 3.536-1.415 1.414L31 31.536z" fill="#F03"/><path d="M38.778 28l1.414 1.414-4.95 4.95-1.414-1.414 4.95-4.95z" fill="#F03"/><path d="M31.681 22.387L34.5 19l2.5-1 2.5-3c-.4.14-1.525-.274-2.5-.5-1.097-.255-2.551.158-3 0-1.71-.601-1.779-1.79-2.319-3.219-.255-.673-.31-1.083-.574-1.753-.373-.948-.464-1.593-1.15-2.338-.552-.602-.995-.809-1.723-1.17-1.826-.905-3.156-.86-5.17-.584-.916.126-1.375.657-2.297.585-.708-.056-1.097-.247-1.724-.585-1.121-.604-1.073-1.998-2.297-2.338-.65-.18-1.054-.07-1.724 0-.92.097-1.4.356-2.297.585-.898.228-1.457.193-2.298.584-.736.342-1.247.504-1.724 1.17-.417.583-.193 1.144-.574 1.753l-2.298 2.922s-1.396.416-1.723 1.17c-.327.752.099 3.126 1.149 4.675.54.798 1.05 1.07 1.723 1.754.224.228.32.39.575.585.567.433 1.019.495 1.723.584.445.057.701.036 1.149 0 .922-.075 1.376-.51 2.298-.584.447-.037.71-.1 1.148 0 .49.11 1.15.584 1.15.584s.766.654 1.148 1.17c.728.98.635 1.81 1.15 2.922.212.462.573 1.169.573 1.169s.473 2.122.575 3.507c.083 1.138-.127 1.788 0 2.922.184 1.651.216 2.728 1.149 4.092.82 1.2 2.872 2.338 2.872 2.338s1.886-.46 2.872-1.169c1.173-.844 1.447-1.745 2.298-2.923.054-.075.106-.148.156-.221" stroke="#030322" stroke-width="2" stroke-linejoin="round"/></svg>