<svg width="72" height="40" fill="none" xmlns="http://www.w3.org/2000/svg"><g clip-path="url(#clip0)" stroke-width="2"><path d="M11 13h26m-26 7h26m-26 7h26M59 1H1v38h58" stroke="#F03" stroke-miterlimit="10"/><path d="M71.018 22.321v-4.785h-3.062c-.288-1.143-.72-2.25-1.369-3.215l2.162-2.142-3.423-3.393-2.161 2.143a11.316 11.316 0 00-3.242-1.358V6.536h-4.828V9.57c-1.152.286-2.269.715-3.242 1.358l-2.161-2.143-3.422 3.393 2.161 2.142a11.118 11.118 0 00-1.369 3.215H44v4.785h3.062c.288 1.143.72 2.25 1.369 3.215l-2.161 2.143 3.386 3.392 2.197-2.178c.973.607 2.09 1.071 3.242 1.321v3.072h4.828v-3.072c1.153-.25 2.27-.714 3.242-1.321l2.197 2.178 3.423-3.392-2.162-2.143a11.114 11.114 0 001.37-3.215h3.025z" stroke="#fff" stroke-miterlimit="10"/><path d="M53.61 19.929c0-2.119 1.741-3.858 3.9-3.858 2.157 0 3.898 1.74 3.898 3.858 0 2.118-1.741 3.857-3.899 3.857s-3.9-1.74-3.9-3.857z" stroke="#fff"/></g><defs><clipPath id="clip0"><path fill="#fff" d="M0 0h72v40H0z"/></clipPath></defs></svg>