<svg width="48" height="48" fill="none" xmlns="http://www.w3.org/2000/svg"><circle cx="24.705" cy="17" r="3" fill="#fff" stroke="#F03" stroke-width="2"/><path fill-rule="evenodd" clip-rule="evenodd" d="M18.42 44.97l-1.815-.84 1.682-3.63 1.815.84-1.682 3.63zm7.094 2.762h-2v-6h2v6zm5.285-7.152l-1.814.841 1.683 3.629 1.814-.842L30.8 40.58z" fill="#F03"/><path fill-rule="evenodd" clip-rule="evenodd" d="M24.584 3.158l8.04 6.904.685 22.915H15.837l1.027-22.927 7.72-6.892zm10.664 27.743l.062 2.076.06 2h-4.54v3.76H18.01v-3.76h-4.265l.09-2 .098-2.2-5.965 2.63-1.97.87.607-2.067 2.703-9.194.124-.419.391-.194 4.587-2.275.493-11.009L24.558.5l10.04 8.62.335 11.227 4.145 2.056.391.194.123.42 2.703 9.193.608 2.066-1.97-.869-5.685-2.506zm-.066-2.215l4.587 2.023L37.797 24l-2.796-1.387.181 6.073zm-20.873-6.275l-.275 6.137-4.902 2.16L11.105 24l3.204-1.59zm5.533 12.566v1.928H29v-1.928h-9.157z" fill="#030322"/></svg>