<svg width="72" height="40" fill="none" xmlns="http://www.w3.org/2000/svg"><path d="M65.841 28.93c2.856 0 5.159-2.571 5.159-5.776 0-3.205-2.303-5.776-5.159-5.776h-.092c.123-.5.215-1.035.215-1.602 0-3.205-2.303-5.776-5.158-5.776-2.12 0-3.93 1.436-4.73 3.505-.89-.8-1.995-1.268-3.223-1.268-2.733 0-4.975 2.403-5.128 5.442a4.843 4.843 0 00-1.566-.267c-2.856 0-5.159 2.57-5.159 5.775 0 3.005 2.886 5.709 5.589 5.776 5.312.1 19.252-.034 19.252-.034z" stroke="#fff" stroke-width="2" stroke-miterlimit="10"/><path d="M11 13h26m-26 7h26m-26 7h25.61M58 1H1v38h57" stroke="#F03" stroke-width="2" stroke-miterlimit="10"/></svg>