<svg width="48" height="48" viewBox="0 0 48 48" fill="none" xmlns="http://www.w3.org/2000/svg">
<circle cx="38.4" cy="9.59999" r="6.2" stroke="white" stroke-width="2"/>
<rect x="43.4891" y="13.8407" width="2" height="12.7855" transform="rotate(135 43.4891 13.8407)" fill="white"/>
<circle cx="37.2008" cy="29" r="4" stroke="#FF0033" stroke-width="2"/>
<path d="M42.2 42V44H32.2V42C32.2 39.2386 34.4386 37 37.2 37C39.9614 37 42.2 39.2386 42.2 42Z" stroke="#FF0033" stroke-width="2"/>
<path d="M14.8008 29C14.8008 31.2091 13.0099 33 10.8008 33C8.59164 33 6.80078 31.2091 6.80078 29C6.80078 26.7909 8.59164 25 10.8008 25C13.0099 25 14.8008 26.7909 14.8008 29Z" stroke="#FF0033" stroke-width="2"/>
<path d="M15.8 42V44H5.8V42C5.8 39.2386 8.03858 37 10.8 37C13.5614 37 15.8 39.2386 15.8 42Z" stroke="#FF0033" stroke-width="2"/>
<path d="M28.0008 29C28.0008 31.2091 26.2099 33 24.0008 33C21.7916 33 20.0008 31.2091 20.0008 29C20.0008 26.7909 21.7916 25 24.0008 25C26.2099 25 28.0008 26.7909 28.0008 29Z" stroke="#FF0033" stroke-width="2"/>
<path d="M29 42V44H19V42C19 39.2386 21.2386 37 24 37C26.7614 37 29 39.2386 29 42Z" stroke="#FF0033" stroke-width="2"/>
</svg>
