<svg width="48" height="48" viewBox="0 0 48 48" fill="none" xmlns="http://www.w3.org/2000/svg">
<circle cx="24" cy="20" r="6" stroke="#FF0033" stroke-width="2"/>
<path d="M16 39C16 34.5817 19.5817 31 24 31C28.4183 31 32 34.5817 32 39V44H16V39Z" stroke="#FF0033" stroke-width="2"/>
<circle cx="10" cy="29" r="4" stroke="#FF0033" stroke-width="2"/>
<path d="M5 42C5 39.2386 7.23858 37 10 37C12.7614 37 15 39.2386 15 42V44H5V42Z" stroke="#FF0033" stroke-width="2"/>
<circle cx="37" cy="29" r="4" stroke="#FF0033" stroke-width="2"/>
<path d="M32 42C32 39.2386 34.2386 37 37 37C39.7614 37 42 39.2386 42 42V44H32V42Z" stroke="#FF0033" stroke-width="2"/>
<rect x="40" y="2" width="2" height="10" fill="white"/>
<rect x="46" y="6" width="2" height="10" transform="rotate(90 46 6)" fill="white"/>
</svg>
