<svg width="48" height="48" fill="none" xmlns="http://www.w3.org/2000/svg"><path fill-rule="evenodd" clip-rule="evenodd" d="M22.876 29.523l4.93-4.744 1.386 1.442-4.623 4.448v6.574h-2v-7.425l.307-.295zM20.24 29.5l-5-4.5-1.338 1.487 4.67 4.202v6.554h2v-7.445l-.332-.298z" fill="#F03"/><path fill-rule="evenodd" clip-rule="evenodd" d="M8 22.755c0 5.1 2.827 9.539 7 11.835v6.665h2v4h9v-4h2V34.59c4.173-2.296 7-6.736 7-11.835 0-7.456-6.044-13.5-13.5-13.5S8 15.3 8 22.755zm18 14.5v2h-9v-2h9zm0-2v-1.914c4.115-1.751 7-5.832 7-10.586 0-6.351-5.149-11.5-11.5-11.5S10 16.404 10 22.755c0 4.755 2.885 8.835 7 10.586v1.914h9zm-7 8v-2h5v2h-5z" fill="#030322"/><path fill-rule="evenodd" clip-rule="evenodd" d="M35.407 5.052l1.564 1.247-3.742 4.69-1.564-1.247 3.742-4.69zm3.764 6.84l1.113 1.661-3.322 2.228-1.114-1.661 3.323-2.228zM26.294 7.284l1.878.687 1.375-3.756-1.878-.687-1.375 3.756z" fill="#F03"/></svg>