<svg width="48" height="48" fill="none" xmlns="http://www.w3.org/2000/svg"><path d="M23.293 14.234l.707.707.707-.707c4.295-4.295 8.622-4.957 11.772-3.599C39.661 12.008 42 15.59 42 20.527c0 2.589-1.073 5.135-2.784 7.542-1.709 2.405-4.008 4.606-6.342 6.48-2.33 1.873-4.666 3.397-6.421 4.453A56.844 56.844 0 0124 40.4a56.844 56.844 0 01-2.453-1.397c-1.756-1.056-4.09-2.58-6.42-4.452-2.335-1.875-4.634-4.076-6.343-6.48C7.074 25.661 6 23.115 6 20.526c0-4.938 2.339-8.52 5.521-9.892 3.15-1.358 7.477-.696 11.772 3.6z" stroke="#F03" stroke-width="2"/><path d="M36.5 21.5A5.5 5.5 0 0031 16" stroke="#fff" stroke-width="2"/></svg>