<svg width="48" height="48" fill="none" xmlns="http://www.w3.org/2000/svg"><path stroke="#030322" d="M2.5 33.5h25v1h-25z"/><path d="M33 19.143V11H3v19h25.161" stroke="#030322" stroke-width="2"/><path stroke="#030322" stroke-width="2" d="M28 19h14v22H28z"/><circle cx="35" cy="37" r="1" fill="#030322"/><path d="M13 20.535l1.414-1.414 3.536 3.536-1.415 1.414L13 20.535z" fill="#F03"/><path d="M20.778 17l1.414 1.414-4.95 4.95-1.414-1.414 4.95-4.95zM31 28.535l1.414-1.414 3.536 3.536-1.415 1.414L31 28.536z" fill="#F03"/><path d="M38.778 25l1.414 1.414-4.95 4.95-1.414-1.414 4.95-4.95z" fill="#F03"/></svg>