<svg width="48" height="48" fill="none" xmlns="http://www.w3.org/2000/svg"><path fill-rule="evenodd" clip-rule="evenodd" d="M16.594 2h-1v4.682a15.5 15.5 0 00-4.446 2.539L7.896 7.368l-.859-.489-.5.853-4.402 7.526-.511.873.879.5 3.237 1.845a15.19 15.19 0 000 5.048l-3.237 1.844-.88.501.512.873 4.403 7.526.5.853.858-.49 3.252-1.852a15.502 15.502 0 004.446 2.539V39h2v-5.131l-.7-.22a13.5 13.5 0 01-4.962-2.831l-.537-.482-.626.357-3.004 1.711-3.393-5.799 2.981-1.698.64-.364-.158-.72c-.2-.909-.305-1.853-.305-2.823s.105-1.915.305-2.824l.158-.719-.64-.364-2.981-1.698 3.393-5.8 3.004 1.712.627.357.536-.482a13.5 13.5 0 014.963-2.83l.7-.221V4H24.4v4.131l.7.22a13.5 13.5 0 014.962 2.831l.537.482.626-.357 3.005-1.712 3.393 5.8-2.982 1.698-.64.364.159.72a13.194 13.194 0 010 5.647l1.953.429a15.19 15.19 0 00.141-5.777l3.238-1.844.879-.501-.511-.873-4.403-7.526-.5-.853-.859.49-3.252 1.852A15.498 15.498 0 0026.4 6.682V2h-9.807zm4.407 26a7 7 0 100-14 7 7 0 000 14zm0 2a9 9 0 100-18 9 9 0 000 18zm0-7a2 2 0 100-4 2 2 0 000 4zm0 2a4 4 0 100-8 4 4 0 000 8z" fill="#F03"/><path fill-rule="evenodd" clip-rule="evenodd" d="M24.654 37.429c-.14-.158-.264-.302-.371-.429a23.09 23.09 0 012.739-2.734C29.043 32.568 31.69 31 34.5 31s5.456 1.568 7.479 3.266A23.09 23.09 0 0144.717 37a23.09 23.09 0 01-2.738 2.734C39.956 41.432 37.309 43 34.5 43s-5.456-1.568-7.479-3.266a23.09 23.09 0 01-2.367-2.305zm22.15-1.024L46 37l.804.595-.002.003-.004.005-.015.02-.05.065a21.892 21.892 0 01-.893 1.07 25.093 25.093 0 01-2.575 2.508C41.119 43.068 38.016 45 34.5 45c-3.516 0-6.619-1.932-8.765-3.734a25.093 25.093 0 01-3.28-3.339 14.08 14.08 0 01-.188-.239l-.05-.066-.015-.019-.004-.005-.001-.002v-.001L23 37l-.804-.595.002-.003.004-.005.014-.02.051-.065.188-.24a25.093 25.093 0 013.28-3.339C27.881 30.933 30.984 29 34.5 29c3.516 0 6.619 1.932 8.765 3.734a25.093 25.093 0 013.28 3.339c.081.101.144.182.188.239l.05.066.015.019.004.005.001.002v.001zM46 37l.804-.594a1 1 0 010 1.188L46 37zm-23.804-.594L23 37l-.804.594a1 1 0 010-1.188zM36.5 37a2 2 0 11-4 0 2 2 0 014 0zm2 0a4 4 0 11-8 0 4 4 0 018 0z" fill="#fff"/></svg>