<svg width="32" height="32" viewBox="0 0 32 32" fill="none" xmlns="http://www.w3.org/2000/svg">
<path d="M8.5 10.5L9.5 11H12.5M15 24.5L17 26L21.5 24L26 19L15.5 13M6.5 18.5L4 16.5" stroke="#FF0033"/>
<path d="M23 10L22 10.5L17 10L13 10.5L10 14L11 15.5L16 13" stroke="#FF0033"/>
<path d="M27.5 16.5L25 18.5" stroke="#FF0033"/>
<path d="M5.24885 19.4583L7.52869 17.1784L15.6863 24.0617L13.818 26.3037L5.24885 19.4583Z" stroke="#FF0033"/>
<path d="M1.10744 13.5186L5.97541 6.91491L9.21065 9.26508L3.46828 17.1701L1.10744 13.5186Z" stroke="#FF0033"/>
<path d="M30.4096 13.0325L28.0882 17.1994L22.7024 9.13335L26.0489 6.89883L30.4096 13.0325Z" stroke="#FF0033"/>
<circle cx="6.5" cy="9.5" r="0.5" fill="#FF0033"/>
<circle cx="25.5" cy="9.5" r="0.5" fill="#FF0033"/>
</svg>
