<svg width="32" height="32" viewBox="0 0 32 32" fill="none" xmlns="http://www.w3.org/2000/svg">
<path d="M4.5 14C4.5 15.3807 5.61929 16.5 7 16.5C8.38071 16.5 9.5 15.3807 9.5 14C9.5 12.6193 8.38071 11.5 7 11.5C5.61929 11.5 4.5 12.6193 4.5 14Z" stroke="#FF0033"/>
<path d="M21.5 12C21.5 13.3807 22.6193 14.5 24 14.5C25.3807 14.5 26.5 13.3807 26.5 12C26.5 10.6193 25.3807 9.5 24 9.5C22.6193 9.5 21.5 10.6193 21.5 12Z" stroke="#FF0033"/>
<path d="M9 16L11.5 19V29" stroke="#FF0033"/>
<path d="M15 29V22L24 19C24 17.6667 24 14.5 24 14.5" stroke="#FF0033"/>
<path d="M13.5 7C13.5 8.38071 14.6193 9.5 16 9.5C17.3807 9.5 18.5 8.38071 18.5 7C18.5 5.61929 17.3807 4.5 16 4.5C14.6193 4.5 13.5 5.61929 13.5 7Z" stroke="#FF0033"/>
<path d="M18.5 29V16L16 13V9.5" stroke="#FF0033"/>
</svg>
