<svg width="32" height="32" fill="none" xmlns="http://www.w3.org/2000/svg"><path d="M8.5 10.5l1 .5h3M15 24.5l2 1.5 4.5-2 4.5-5-10.5-6m-9 5.5l-2.5-2" stroke="current-color"/><path d="M23 10l-1 .5-5-.5-4 .5-3 3.5 1 1.5 5-2.5m11.5 3.5l-2.5 2m-19.751.958l2.28-2.28 8.157 6.884-1.868 2.242-8.57-6.846zm-4.142-5.939l4.868-6.604 3.236 2.35-5.743 7.905-2.36-3.651zm29.303-.486l-2.322 4.166-5.386-8.066L26.05 6.9l4.36 6.134z" stroke="current-color"/><circle cx="6.5" cy="9.5" r=".5" fill="current-color"/><circle cx="25.5" cy="9.5" r=".5" fill="current-color"/></svg>