<svg width="32" height="32" fill="none" xmlns="http://www.w3.org/2000/svg"><path d="M20.5 9.95c0 1.243-.514 2.65-1.36 3.744-.848 1.098-1.967 1.806-3.14 1.806s-2.292-.708-3.14-1.806c-.846-1.094-1.36-2.501-1.36-3.744 0-2.453 2.01-4.45 4.5-4.45s4.5 1.997 4.5 4.45zM10.5 24a5.5 5.5 0 1111 0v2.5h-11V24zm-1-8c0 .702-.289 1.468-.767 2.056C8.255 18.644 7.635 19 7 19s-1.255-.355-1.733-.944C4.789 17.468 4.5 16.702 4.5 16a2.5 2.5 0 015 0zm-6 9a3.5 3.5 0 117 0v1.5h-7V25zm24-9c0 .702-.289 1.468-.767 2.056-.478.588-1.098.944-1.733.944-.636 0-1.255-.355-1.733-.944-.478-.588-.767-1.354-.767-2.056a2.5 2.5 0 015 0zm-6 9a3.5 3.5 0 117 0v1.5h-7V25z" stroke="current-color"/></svg>