<svg width="78" height="25" fill="none" xmlns="http://www.w3.org/2000/svg"><path d="M72.495 16.577c-1.695 0-3.252-1.008-3.618-2.473l9.021-1.466c0-3.618-2.61-5.633-5.861-5.633-3.435 0-6 2.473-6 5.954 0 3.434 2.519 5.953 6.412 5.953 2.015 0 3.618-.64 4.67-1.877L75.7 15.34c-.916.779-1.877 1.237-3.206 1.237zm-.504-7.42c1.42 0 2.519.733 3.022 1.833 0 0-5.22.824-6.274 1.007.23-1.832 1.466-2.84 3.252-2.84zm-29.493 7.328c-1.831.046-3.251-1.465-3.389-3.48 0-2.52 1.74-3.664 3.435-3.664 1.649 0 3.389 1.099 3.435 3.435.046.412.046 3.617-3.48 3.71zm3.664-9.388v1.511l-.275-.275c-.595-.64-1.557-1.099-2.564-1.282a9.67 9.67 0 00-1.191-.091c-.229 0-.504 0-.733.045-2.977.32-5.037 2.565-5.037 5.862 0 .183 0 .412.045.596.275 3.251 2.61 5.312 5.817 5.312 1.557 0 2.976-.504 3.846-1.603.092.824-.045 2.244-.687 3.068-.55.687-1.831 1.374-3.068 1.374-.778 0-1.786-.091-2.564-.32-.779-.23-1.237-.458-1.74-.87l-1.191 1.969c1.877 1.236 3.8 1.694 5.633 1.648 3.297-.091 5.77-2.427 6.136-5.404.046-.503.138-1.144.138-1.74v-9.8h-2.565zm11.953 9.48c-1.695 0-3.252-1.008-3.618-2.473l9.022-1.466c0-3.618-2.61-5.633-5.862-5.633-3.435 0-6 2.473-6 5.954 0 3.434 2.52 5.953 6.412 5.953 2.015 0 3.618-.64 4.67-1.877L61.32 15.34c-.916.779-1.923 1.237-3.205 1.237zm-.504-7.42c1.42 0 2.519.733 3.022 1.833 0 0-5.22.824-6.274 1.007.183-1.832 1.42-2.84 3.252-2.84zm-45.292-2.06v11.586H9.754v-1.511c-.915 1.1-2.244 1.649-3.846 1.649C2.473 18.866 0 16.53 0 12.913 0 9.295 2.473 6.96 5.862 6.96c1.465 0 2.793.503 3.71 1.557v-1.42h2.747zm-2.702 5.816c0-2.198-1.465-3.618-3.435-3.618-1.969 0-3.434 1.42-3.434 3.618s1.465 3.618 3.434 3.618c1.97 0 3.435-1.42 3.435-3.618zM15.891.044l2.702 1.008v17.631h-2.702V.044zm9.617 16.304V9.57h2.107V7.189h-2.061v-3.48l-2.748-1.054v4.534h-2.06V9.57h2.06v9.16h5.313v-2.382h-2.61zm5.175-13.922c0-.916.733-1.649 1.74-1.649 1.008 0 1.74.687 1.74 1.557 0 .962-.732 1.695-1.74 1.695-1.007.045-1.74-.687-1.74-1.603zm.367 3.343l2.701 1.007V18.73H31.05V5.77z" fill="current-color"/></svg>