<svg width="32" height="32" viewBox="0 0 32 32" fill="none" xmlns="http://www.w3.org/2000/svg">
<path d="M24 12.5058H20.0346V9.4534C20.0646 9.32465 20.1438 9.13134 20.2869 8.97166C20.4316 8.81022 20.6429 8.67867 20.9751 8.67867H24H24.5V8.17867V4V3.5H24H19.5346H19.5191L19.5037 3.50096C18.6596 3.55332 17.4034 3.85348 16.3434 4.59982C15.2619 5.36127 14.3892 6.58877 14.3892 8.43084V12.5058H11H10.5V13.0058V17.7248V18.2248H11H14.3892V29V29.5H14.8892H19.5346H20.0346V29V18.2248H23.3518H23.7878L23.8471 17.7928L24.4953 13.0738L24.5734 12.5058H24Z" stroke="white"/>
</svg>
