<svg width="32" height="32" viewBox="0 0 32 32" fill="none" xmlns="http://www.w3.org/2000/svg">
<path d="M25.5 11.9937C25.5 15.6301 23.1038 19.5514 20.6116 22.6261C19.3768 24.1495 18.1406 25.4384 17.2127 26.3467C16.7491 26.8005 16.3632 27.1586 16.094 27.4025C16.0609 27.4325 16.0295 27.4608 16 27.4873C15.9705 27.4608 15.9391 27.4325 15.906 27.4025C15.6368 27.1586 15.2509 26.8005 14.7873 26.3467C13.8594 25.4384 12.6232 24.1495 11.3884 22.6261C8.89622 19.5514 6.5 15.6301 6.5 11.9937C6.5 6.75079 10.753 2.5 16 2.5C21.247 2.5 25.5 6.75079 25.5 11.9937Z" stroke="white"/>
<circle cx="16.0001" cy="12.6923" r="3.34615" stroke="white"/>
</svg>
