<svg width="272" height="6" viewBox="0 0 272 6" fill="current-color" xmlns="http://www.w3.org/2000/svg">
<rect x="4" width="1" height="6" fill="current-color"/>
<rect width="1" height="6" fill="current-color"/>
<rect x="8" width="1" height="6" fill="current-color"/>
<rect x="31" width="1" height="6" fill="current-color"/>
<rect x="79" width="1" height="6" fill="current-color"/>
<rect x="75" width="1" height="6" fill="current-color"/>
<rect width="1" height="6" transform="matrix(1 0 0 -1 271 6)" fill="current-color"/>
<rect width="1" height="6" transform="matrix(1 0 0 -1 127 6)" fill="current-color"/>
<rect width="1" height="6" transform="matrix(1 0 0 -1 48 6)" fill="current-color"/>
<rect width="1" height="6" transform="matrix(1 0 0 -1 240 6)" fill="current-color"/>
<rect width="1" height="6" transform="matrix(1 0 0 -1 250 6)" fill="current-color"/>
<rect width="1" height="6" transform="matrix(1 0 0 -1 254 6)" fill="current-color"/>
<rect width="1" height="6" transform="matrix(1 0 0 -1 192 6)" fill="current-color"/>
<rect width="1" height="6" transform="matrix(1 0 0 -1 203 6)" fill="current-color"/>
<rect width="1" height="6" transform="matrix(1 0 0 -1 207 6)" fill="current-color"/>
</svg>
