<svg width="32" height="32" fill="none" xmlns="http://www.w3.org/2000/svg"><path d="M8.012 4A3.016 3.016 0 005 7.012a3.016 3.016 0 003.012 3.012 3.016 3.016 0 003.012-3.012A3.016 3.016 0 008.012 4zm14.238 7.119c-2.001 0-3.205.993-4.107 2.01v-1.188a.285.285 0 00-.274-.274h-4.38a.284.284 0 00-.275.274v14.785c0 .144.13.274.274.274h4.655c.143 0 .274-.13.274-.274v-8.214c0-.749.232-1.451.59-1.951s.825-.787 1.326-.787h.548c.501 0 .968.287 1.326.787.358.5.59 1.202.59 1.95v8.215c0 .144.131.274.274.274h4.655c.144 0 .274-.13.274-.274v-9.583c0-1.79-.343-3.302-1.258-4.373-.914-1.07-2.38-1.651-4.492-1.651zm-16.48.548a.283.283 0 00-.222.274v14.785c0 .144.13.274.273.274h4.655c.144 0 .274-.13.274-.274V11.941a.284.284 0 00-.274-.274H5.77z" stroke="current-color"/></svg>