<svg width="32" height="32" fill="none" xmlns="http://www.w3.org/2000/svg"><path d="M26.778 20.454h0l.006.005c.489.475.708 1.002.716 1.506.008.504-.194 1.036-.645 1.522l-.722.717c-.38.351-.716.685-1.027 1.049l-.013.013-.008.008-.008.008c-.744.812-1.696 1.218-2.842 1.218h0-.002 0-.002 0-.002 0-.001 0-.002 0-.002 0-.002 0-.002 0-.002 0-.002 0-.001 0-.002 0-.002 0-.002 0-.002 0-.002 0-.002 0-.002 0-.002 0-.002 0-.002 0-.002 0-.002 0-.002 0-.002 0-.001 0-.002 0-.002 0-.002 0-.002 0-.002 0-.002 0-.002 0-.001 0-.002 0-.002 0-.002 0-.002 0-.002 0-.001 0-.002 0-.002 0-.002 0-.002 0-.001 0-.002 0-.002 0-.002 0-.001 0-.002 0-.002 0-.002 0-.001 0-.002 0-.002 0-.002 0-.001 0-.002 0-.002 0-.001 0-.002 0-.002 0-.002 0-.001 0-.002 0-.002 0-.001 0-.002 0-.002 0-.001 0-.002 0-.002 0-.001 0-.002 0-.002 0-.001 0-.002 0-.002 0-.001 0-.002 0-.002 0-.001 0-.002 0-.002 0-.001 0-.002 0-.002 0-.001 0-.002 0-.002 0-.001 0-.002 0-.002 0-.001 0-.002 0-.002 0-.001 0-.002 0-.002 0-.001 0-.002 0-.001 0-.002 0-.002 0-.001 0-.002 0-.002 0-.001 0-.002 0-.002 0-.001 0-.002 0-.002 0-.001 0-.002 0-.002 0-.001 0-.002 0-.002 0-.001 0-.002 0-.002 0-.001 0-.002 0-.002 0-.001 0-.002 0-.002 0-.001 0-.002 0-.002 0-.001 0-.002 0H22h0-.002 0-.002 0-.002 0-.001 0-.002 0-.002 0-.001 0-.002 0-.002 0-.002 0-.001 0-.002 0-.002 0-.001 0-.002 0-.002 0-.002 0-.001 0-.002 0-.002 0-.002 0-.002 0-.001 0-.002 0-.002 0-.002 0-.002 0-.001 0-.002 0-.002 0-.002 0-.002 0-.001 0-.002 0-.002 0-.002 0-.002 0-.002 0-.002 0-.002 0-.002 0-.002 0-.001 0-.002 0-.002 0-.002 0-.002 0-.002 0-.002 0-.002 0-.002 0-.001 0-.002 0-.002 0-.002 0-.001c-1.83-.132-3.47-.8-4.755-1.412-3.333-1.591-6.243-3.873-8.676-6.744-2.012-2.401-3.365-4.624-4.239-7.019h0l-.001-.004c-.584-1.556-.805-2.776-.705-3.92v-.003A3.498 3.498 0 014.575 5.14h0l.005-.005 1.925-1.968c.492-.463.997-.668 1.527-.668.533 0 1.036.207 1.497.666l.007.007.008.007c.34.313.683.653 1.033 1.001.172.198.342.368.524.548l.006.006 1.551 1.543c.497.494.724 1.021.724 1.54 0 .517-.227 1.044-.724 1.538l-.245.244-.244.244c-.114.113-.226.225-.337.338-.327.33-.648.654-1.003.967l-.272.241.145.334c.377.865.895 1.661 1.646 2.601h0l.005.006c1.493 1.815 3.055 3.26 4.795 4.35.152.1.331.186.487.261l.132.064h.002v.001h.001l.001.001h.001l.001.001h.001l.001.001h.002l.001.001h.001l.001.001h0l.002.001h0l.002.001h0l.002.001h0l.002.001h0l.002.001h0l.002.001h0l.001.001h.001l.001.001h.002l.001.001h.001l.001.001h.001l.001.001h0l.002.001h0l.002.001h0l.002.001h0l.002.001h0l.002.001h0l.002.001h.001l.001.001h.001l.001.001h.001l.001.001h.001l.001.001h.001l.001.001h0l.002.001h0l.002.001h0l.002.001h0l.002.001h0l.002.001h.002v.001h.001l.001.001h.001l.001.001h.001l.001.001h.001l.001.001h.001l.001.001h0l.002.001h0l.002.001h0l.002.001h0l.002.001h.002v.001h.002v.001h.001l.001.001h.001l.001.001h.001l.001.001h.001l.001.001h.001l.001.001h0l.002.001h0l.002.001h0l.002.001h.002v.001h.002v.001h.002v.001h.001l.001.001h.001l.001.001h.001l.001.001h.001l.001.001h.001l.001.001h0l.002.001h.002v.001h.002v.001h.002v.001h.002v.001h.002v.001h.001l.001.001h.001l.001.001h.001l.001.001h.001l.001.001h.001l.001.001h.002v.001h.002v.001h.002v.001h.002v.001h.002v.001h.002v.001h.001l.001.001h.001l.001.001h.001l.001.001h.001l.001.001h.002v.001h.002v.001h.002v.001h.002v.001h.002v.001h.002v.001h.002v.001h.001l.001.001h.001l.001.001h.002l.001.001h.001l.001.001h.001v.001h.002v.001h.002v.001h.002v.001h.002v.001h.002v.001h.002v.001h.001l.001.001h.002l.001.001h.001l.001.001h.001l.001.001h.001l.001.001h0l.002.001h0l.002.001h0l.002.001h0l.002.001h0l.002.001h0l.001.001h.002l.001.001h.001l.001.001h.001l.001.001h.001l.001.001H18l.001.001h0l.002.001h0l.002.001h0l.002.001h0l.002.001h0l.002.001h.001l.001.001h.001l.001.001h.001l.001.001h.001l.001.001h.001l.001.001h.001l.001.001h0l.002.001h0l.002.001h0l.002.001h.002v.001h.002v.001h.001l.001.001h.001l.001.001h.001l.001.001h.001l.001.001h.001l.001.001h.001l.001.001h0l.002.001h0l.002.001h.002v.001h.002v.001h.002v.001h.001l.001.001h.001l.001.001h.001l.001.001h.001l.001.001h.001l.001.001h.001l.001.001h0l.002.001h.002v.001h.002v.001h.002v.001h.002v.001h.001l.001.001h.001l.001.001h.001l.001.001h.001l.001.001h.001l.001.001h.001l.001.001h.002v.001h.002v.001h.002v.001h.002v.001h.002v.001h.001l.001.001h.001l.001.001h.001l.001.001h.001l.001.001h.002l.001.001h.001v.001h.002v.001h.002v.001h.002v.001h.002v.001h.002v.001h.001l.001.001h.001l.001.001h.001l.001.001h.002l.001.001h.001l.001.001h.001v.001h.002v.001h.002v.001h.002v.001h.002v.001h.002v.001h.001l.001.001h.001l.001.001h.002l.001.001h.001l.001.001h.001l.001.001h.001v.001h.002v.001h.002v.001h.002v.001h.002v.001h.002v.001h.001l.001.001h.002l.001.001h.001l.001.001h.001l.001.001h.001l.001.001h.001v.001h.002v.001h.002v.001h.002v.001h.002v.001h.002l.001.001h.001l.001.001h.001l.001.001h.001l.001.001h.001l.001.001h.001l.001.001h.001v.001h.002v.001h.002v.001h.002v.001h.002l.002.001h0l.001.001h.001l.001.001h.001l.001.001h.001l.001.001h.001l.001.001h.001l.001.001h.001v.001h.002v.001h.002v.001h.002l.002.001h0l.002.001h0l.001.001h.001l.001.001h.001l.001.001h.001l.001.001h.001l.001.001h.001l.001.001h.001v.001h.002v.001h.002l.002.001h0l.002.001h0l.002.001h0l.001.001h.001l.001.001h.001l.321.16.255-.252 1.823-1.813c.466-.465.998-.694 1.524-.694.532 0 1.03.206 1.49.685h0l.006.007 3.102 3.112z" stroke="current-color"/></svg>