<svg width="1366" height="789" fill="none" xmlns="http://www.w3.org/2000/svg"><path fill="#030322" d="M-79 34h1524v755H-79z"/><g opacity=".1" fill="#fff"><path d="M1444.91 688.725c-2.12 2.72-3.14 6.289-6.46 8.073-3.66 1.955-6.81 3.909-9.54 7.648-2.72 3.739-7.74 6.034-12.68 7.309-.59.169-1.36.509-1.87.255-3.4-1.445-5.36.594-7.23 2.804-1.11 1.274-2.64 2.124-4.17 2.804-2.9 1.275-5.53 2.634-6.39 6.033-.17.85-.85 1.7-1.78 1.615-6.9-.17-10.98 4.844-15.92 8.328-3.57 2.549-7.23 4.759-11.15 6.628-1.87.85-8.42-.934-9.44-2.634-.77-1.36.68-1.615 1.36-2.04 6.55-4.078 13.27-7.988 19.66-12.236 5.79-3.909 12.59-6.119 18.21-10.283 1.53-1.105 2.81-2.549 4.26-3.739 1.53-1.274 3.06-2.634 5.36-1.529.42.17 1.1.17 1.53-.085 1.87-1.19 3.49-2.89 5.28.425.68 1.189 2.21-.425 3.15-1.105 3.23-2.55 3.31-3.824.25-6.459-1.53-1.274-1.28-2.209.51-2.634 7.24-1.784 8.17-7.903 9.11-13.682.51-2.804.17-5.693.76-8.497.26-1.105-.51-3.229 1.28-2.975 1.79.255 4 1.105 4.26 3.57.08.424 0 .849-.17 1.274-2.05 4.419 1.1 7.903 2.38 11.642.59 1.7 2.21 2.04 4 1.19 1.79-.85 3.66-1.615 5.53-2.464-.09.34-.09.594-.09.764zm-179.4-23.539c-4.26 1.87-7.32 4.419-9.96 7.479-.68.849-1.44 1.529-2.72 1.019-1.11-.51-1.62-1.359-1.7-2.464-.26-2.634.85-5.864-1.79-7.733-4.6-3.229-8.85-7.223-15.15-7.138-3.57.085-7.15-.17-10.64 1.189-6.04 2.38-12.76 2.04-18.55 5.184-2.55 1.36-5.19 2.38-7.15 4.589-1.7 1.869-3.91 2.379-6.38 2.124-1.62-.17-3.15-.255-4.77-.34-4.08-.34-7.91.34-11.4 2.805-2.05 1.444-4.51 2.379-6.81 3.399-4.17 1.784-7.92.425-11.49-1.7-2.3-1.359-2.04-4.589.17-6.033 1.62-1.02 2.55-2.55 3.23-4.249 1.71-4.164 3.66-8.413 2.39-13.172-.26-.85-.17-1.954 0-2.804 1.7-7.393-.34-14.276-2.56-21.16-.59-1.869-.08-2.889 1.36-3.654 2.05-.934 2.47-2.464 1.71-4.419-.85-2.209-.51-4.079 1.1-5.863 1.45-1.615 1.45-3.654 1.54-5.694.17-2.889.08-5.778 4.51-5.693 1.61 0 3.32-2.04 4.93-3.229 2.9-2.21 6.13-3.4 9.79-4.249 6.55-1.445 12.94-3.654 18.64-6.969 4-2.294 7.83-5.523 8.51-10.877.25-2.124 1.45-3.739 2.98-5.098.93-.765 1.87-2.21 2.81 0 .25.594.76.934 1.19.339 2.04-2.804 6.04-3.484 7.23-7.223.43-1.274 1.28-2.464 3.15-1.954 1.96.595 2.72-.34 2.98-2.21.25-2.634 1.53-4.673 4.34-5.183 2.81-.51 4.51 1.189 6.04 3.314 2.13 3.144 5.19 3.739 8.43 1.784.93-.51.85-1.359 1.02-2.124.76-2.974 2.3-5.694 4.08-8.158 1.71-2.379 4.26-3.399 7.07-3.739 2.55-.255 3.74-1.275 2.47-3.994-.52-1.02-.77-2.379.34-3.229 1.27-.85 2.46.085 3.4.85 1.53 1.359 2.98 2.634 4.77 3.654 3.06 1.614 6.04 3.059 9.44.849 1.02-.679 2.39-1.019 3.66-.594 2.39.764 3.15 3.824 1.02 5.438-3.23 2.38-3.91 6.459-6.63 9.093-.86.85-.69 1.869.17 2.804 1.61 1.785 3.14 3.654 5.27 5.014 1.36.85 2.56 1.954 3.24 3.399 1.7 3.314 4.93 4.844 8 6.458 2.63 1.445 4.51.255 6.38-2.124 6.13-7.903 6.21-17.506 7.91-26.683.43-2.55 1.54-4.844 2.39-7.138.25-.68.59-1.445 1.44-1.53 1.03-.085 1.45.85 1.71 1.614 1.44 4.164 2.8 8.413 3.06 12.917.17 2.634.26 5.439 4.26 5.269 1.36-.085 1.95 1.105 2.29 2.294.6 2.21 1.62 4.504 1.54 6.799-.35 9.347 3.48 16.74 9.95 23.029 1.79 1.699 2.39 3.569 2.3 5.948-.08 2.719.17 5.354 3.57 6.204.94.255 1.45 1.274 1.62 2.209.94 5.184 3.75 9.348 6.73 13.512 1.1 1.529 1.19 3.059.68 4.758-1.71 6.204-2.64 12.747-5.2 18.611-3.65 8.413-7.23 17.25-15.65 22.434-3.49 2.209-5.45 5.863-8 8.923-4.26 5.098-8.43 10.282-12.6 15.466-.94 1.19-2.04 2.379-3.66 2.209-5.79-.595-9.79 2.719-13.79 6.034-4.34 3.569-4.51 3.569-7.15-1.19-1.1-2.04-2.04-1.785-3.32-.425-2.21 2.21-4.85 2.379-7.66 1.615-1.36-.34-2.63-.765-4-1.105-6.04-1.445-8.85-6.033-7.57-12.237.17-.765.17-1.7 0-2.464-.51-2.72-1.45-2.975-3.49-1.105-.85.765-1.53 1.785-2.3 2.634-.85.935-1.78 1.615-3.06 1.02-1.02-.425-1.96-1.105-1.87-2.294.17-1.36 1.53-1.19 2.47-1.53 2.21-.85 4.34-1.7 6.12-3.229 1.02-.85 1.88-2.21.94-3.314-.94-1.105-1.7.51-2.55 1.019-.43.255-.86.68-1.28.85-.77.34-1.7.935-2.3 0-.51-.765.34-1.274.77-1.869 1.95-2.125 4.93-3.399 6.04-6.969zM435.723 85.549c-1.787-1.36-3.319-1.955-5.021-2.125-.936-.085-2.043.255-2.553-.85-.511-1.104.51-1.699 1.021-2.464.51-.68 1.106-1.275 1.447-2.04 1.787-4.503 2.127-8.072-3.149-10.791-5.958-3.06-12.256-2.805-18.383-4.164-3.745-.765-7.405-1.7-11.149-2.55-1.192-.255-2.128-.935-2.894-1.784-.851-.935-1.872-1.785-1.362-3.314.596-1.53 1.617-2.38 3.32-2.55l21.702-2.55c3.744-.424 4.085-.934 2.298-3.993-1.277-2.21.936-2.04 1.872-2.125 5.702-1.02 11.489-1.954 17.276-2.719 13.788-1.7 27.575-3.06 41.447-2.55 1.192 0 2.468.17 3.405-.34 8.51-4.418 17.702-2.889 26.723-3.568 8.766-.68 17.532-.34 26.298-1.02 5.191-.425 10.127 1.87 15.234 2.804 2.893.51 5.787 1.36 8.681 1.955 1.787.34 3.574.68 4.34 2.634.511 1.19 1.532.85 2.468.765 5.447-.51 10.894-1.105 16.426-1.615 1.106-.085 2.213-.595 3.83.255-2.469 1.105-4.596 2.21-6.724 3.144-5.872 2.635-11.489 5.779-18.042 6.714-4.426.68-4.766 1.954-2.554 5.778.341.595.681 1.275 1.107 1.87 1.361 1.87 1.021 2.889-1.277 3.654-3.83 1.36-4.596 3.229-2.638 7.053.851 1.7-.085 2.38-1.192 2.974-2.127 1.19-4.425 2.04-6.468 3.314-3.149 2.04-6.638 3.91-5.532 8.838.341 1.445-.34 3.144-.595 4.674-.171 1.36-1.107 2.124-2.383 2.04-8.426-.256-15.745 3.653-23.66 5.693-8.681 2.294-16.681 5.864-23.915 11.302-4 2.974-9.276 2.465-13.957 3.909-2.724.85-5.532 1.275-8.341 2.04-2.893.764-5.191 2.294-6.468 5.098-1.447 3.06-4 5.269-6.468 7.308-4.085 3.4-6.723 7.818-9.957 11.897-2.724 3.485-8.936 4.844-12.766 2.55-2.724-1.615-5.362-3.399-8.766-3.484-1.192 0-1.787-.935-2.213-1.955-1.872-4.419-2.979-9.008-3.66-13.681-.851-5.949-.17-11.812.086-17.676.17-3.399 5.021-8.838 8.255-9.602.511-.085 1.021-.17 1.532-.34 1.021-.34 2.383-.68 2.128-1.955-.341-1.36-1.618-.34-2.384-.34-.765 0-1.446.255-2.212.425-1.192.255-2.468.34-2.724-1.275-.255-1.444-.17-2.889 1.532-3.399 2.043-.68 4.341-1.19 6.979-1.87zm834.727 393.28c2.38.765 4.59 1.02 6.98.68 1.61-.17 2.21 1.189 1.78 2.634-.93 3.144-.25 5.608 2.56 7.393.08.085.17.17.17.255 4.68 5.779 4.68 5.778 9.53.255 1.02-1.105 1.7-2.464 2.89-3.314 2.38-1.7 4.85-2.55 8-1.615 10.9 3.059 20.85 8.243 30.55 13.937 1.71 1.019 2.98 2.464 3.32 4.419.51 2.549 1.96 3.739 4.6 3.909 2.47.169 5.79 3.484 6.38 5.863.34 1.445-.59 2.04-1.7 2.125-2.89.169-2.47 1.784-1.53 3.399 2.3 3.909 5.36 7.223 8.85 10.197.6.51 1.28.85 1.87 1.275 1.79 1.274 3.66 3.399 2.9 5.183-.77 1.7-3.24 0-4.86-.34-6.12-1.274-11.31-3.909-14.38-9.772-1.19-2.294-3.57-3.569-5.79-4.929-1.1-.68-2.04-.51-2.89.255-1.7 1.445-3.49 2.719-5.02 4.334-3.23 3.399-7.23 4.334-11.57 2.464-1.62-.764-3.24-1.529-4.86-2.379-2.8-1.53-5.61-2.974-9.02-1.954-.85.254-2.04.339-2.47-.85-.25-.85.43-1.53 1.03-2.21 3.06-3.229 3.32-7.733.59-11.472-1.53-2.124-3.32-3.909-5.96-4.334-5.7-1.019-10.72-4.249-16.68-4.758-3.06-.255-4.08-3.655-4.08-6.374 0-3.229-1.87-4.504-4.09-5.693-.85-.425-1.87-.51-2.64-1.105-1.44-1.105-3.14-2.38-2.97-4.249.17-1.785 2.38-1.36 3.66-1.87 1.61-.594 3.32-.934 4.85-1.359zm-87.07 21.329c-3.32.34-7.23-2.294-11.66-3.399-1.78-.425-3.4-.595-5.19-.085-4.85 1.53-8.25-1.529-7.49-6.373.51-3.144-.17-5.609-2.38-8.073-2.89-3.229-3.15-7.138-1.62-11.217.26-.68.68-1.36.77-2.04.17-1.869 1.27-2.379 2.81-1.784 3.83 1.359 5.87-.085 7.06-3.824.68-2.295 2.81-3.824 5.02-4.504 2.73-.85 4.51-2.634 6.13-4.759 1.62-2.124 3.4-4.164 5.79-5.269 4.76-2.209 7.49-6.033 9.44-10.622.94-2.209 2.05-2.464 3.66-.935 2.73 2.635 5.54 5.269 8.09 7.988 1.87 1.955.59 3.994-.51 5.779-1.62 2.804-4.17 5.014-4.94 8.413-.51 2.379-.42 4.334 1.19 6.203.94 1.02 1.71 2.21 2.39 3.314 1.7 2.805 1.53 3.314-1.71 4.249-1.7.425-2.46 1.36-2.55 3.06-.42 4.418-1.19 8.412-5.7 10.962-2.3 1.274-1.28 4.249-1.11 6.458.26 4.589-1.61 6.713-7.49 6.458z"/><path d="M332.574 65.409c3.66-.935 7.319-1.02 10.979-1.02 3.745 0 7.319.85 10.979 1.53.766.17 1.872.255 1.957 1.275.085.934-.851 1.36-1.532 1.869-2.468 1.785-5.276 1.19-8 .935-1.702-.085-3.319-.085-5.021.34-8.085 2.294-15.915.765-23.745-1.36-1.191-.34-1.447-.935-1.021-2.124.34-1.105-.341-1.785-1.362-2.125-1.021-.34-1.532.255-1.957 1.19-.341.68-.766 1.275-1.107 1.87-1.872 2.889-4 3.908-7.659 2.294-3.915-1.7-8.426 0-12.511-1.19-1.702-.51-4.17 0-4.34-2.634-.17-2.21 3.744-6.714 5.617-6.544 1.872.17 3.744.68 5.532 1.19 1.106.34 1.787 1.275 1.702 2.465-.341 3.229 1.787 2.889 3.83 2.974 2.297 0 3.149-1.02 3.234-3.314.255-3.994.936-4.59 4.851-4.25 2.723.17 5.447.596 7.489 2.89.851 1.02 2.128 1.444 3.489.935 3.915-1.36 7.915-2.38 11.915-3.144 1.532-.255 2.979-1.105 3.83-2.55-.596-1.105-1.617-.85-2.213-.425-3.829 2.21-6.298-.51-8.681-2.634-2.042-1.87-.765-4.589-.255-6.883.255-1.02.681-2.295 2.043-.765 1.447 1.7 3.064 1.105 4.17 0 4.255-3.994 9.447-3.654 14.723-4.08 11.064-.934 22.128-.764 33.022-3.398 9.191-2.21 18.638-1.7 28.085-1.105 7.489.51 14.978.51 22.553-.085.596-.085 1.276-.17 1.872-.17.681 0 1.362.255 1.447 1.02.085.765-.511 1.19-1.106 1.274-7.745.51-14.809 4.59-22.639 4.25-.34 0-.681 0-.936.084-8.34 2.975-17.532 3.57-25.532 7.478-6.638 3.23-13.276 6.544-20 9.518-1.361.595-2.553 1.105-3.744-.085-.426-.425-1.192-.935-1.617-.17-1.362 2.465-3.49 1.53-5.362 1.19-3.66-.595-7.404-.765-11.064-.085-2.298.425-4.596-.935-6.894 0-1.957.595-4 1.105-5.021 3.569zm494.723 522.277c.17-2.889-.511-5.948-1.447-8.838-.681-2.039-.255-3.824.766-5.693 1.787-3.314 3.404-6.204 7.574-7.223 5.958-1.445 10.043-5.524 13.107-10.793 1.532-2.634 3.404-5.098 5.361-7.478 2.298-2.719 2.894-2.464 4.766.425 3.149 4.929 2.298 10.113 1.532 15.381-.085.51-.34 1.275-.681 1.36-3.574 1.02-2.978 3.994-3.234 6.543-.17 1.87-.936 3.654-1.872 5.354-1.532 2.719-2.213 5.609-2.383 8.753-.255 4.164-2.553 7.818-3.66 11.727-1.446 5.523-2.468 11.132-4.34 16.486-1.532 4.503-7.234 9.092-11.83 9.347-4.34.17-10.383-6.798-9.787-11.557.255-1.699.085-3.314.085-5.014-.17-2.974.341-6.033 2.468-8.328 2.724-2.804 3.66-6.288 3.575-10.452zM207.554 80.195c-2.383.255-4.086 1.785-5.873 3.23-3.659 2.889-8.085 3.314-12.425 3.653-3.319.255-3.83-2.889-5.277-4.758-.851-1.105.851-1.445 1.617-1.7a269.714 269.714 0 0110.724-3.824c1.446-.51 2.723-1.19 3.063-2.89.596-2.634 2.554-3.653 4.937-3.738 5.702-.17 11.404-.085 17.191-.085 2.298 0 3.404 1.614 4.255 3.314 1.192 2.634 2.809 3.484 5.873 3.994 3.915.68 8.936-.425 11.744 4.079.851 1.36 1.617.255 2.043-.595 1.787-3.654 5.191-4.674 8.681-5.864 1.106-.34 2.213-.34 2.383 1.105.255 2.72.681 5.694-1.192 7.988-1.532 1.87-1.021 3.06.085 4.674 2.298 3.484 1.958 3.654-1.361 6.203-3.405 2.55-6.639 2.72-10.383 1.02-2.724-1.275-6.043-1.36-8.766-.935-7.319 1.19-15.064.255-21.873 4.334-3.063 1.87-3.829 1.53-5.532-1.7-.936-1.869-2.893-1.954-4.51-2.634-1.702-.764-2.724-1.02-1.532-3.484 1.872-3.824 5.532-6.713 6.128-11.387zM1133 510.186c-3.66-.255-5.96-2.804-8.6-4.929-4.93-4.079-10.29-7.988-11.23-14.786-.85-6.204-4-11.302-6.55-16.741-1.28-2.719-3.41-4.844-4.43-7.648-.42-1.36-1.87-1.615-3.06-2.124-2.56-1.105-4.51-2.805-5.28-5.524-1.11-3.824-3.83-5.949-7.23-7.478-1.62-.765-3.83-1.02-2.73-3.654 1.19-2.805 3.07-1.7 4.94-.765 2.55 1.275 5.11 2.634 7.66 3.824 5.19 2.294 9.87 4.929 12.68 10.367 1.7 3.23 5.28 4.844 8.42 6.544 4 2.039 6.81 5.608 10.39 8.328.93.679.85 1.699-.09 2.379-1.78 1.445-.93 2.464.43 3.484 3.06 2.21 6.21 4.419 7.57 8.243.51 1.36 1.79 1.7 3.15 1.53 1.02-.085 2.3-.34 2.81.849.51 1.02-.51 1.7-1.02 2.465-1.79 2.634-3.41 5.184-2.04 8.753 1.02 2.719-3.07 7.223-5.79 6.883zm91.83-106.053c5.7.51 9.87 3.314 9.19 9.517-.25 2.635.85 4.504 2.98 5.864 2.55 1.7 3.74 3.569 2.55 6.968-1.1 2.974.68 6.034 1.02 9.008.26 2.294.09 3.569-2.63 3.144-1.62-.255-1.62.68-1.54 1.955.17 1.699 1.11 4.079-.51 5.013-1.78 1.02-2.89-1.529-4.34-2.464-2.21-1.36-2.72-3.654-3.06-5.949-.17-1.274.25-3.229-1.7-3.229-1.88 0-4.17-.51-5.37 1.785-.42.85-.93 1.614-1.44 2.294-1.28-.255-1.11-1.104-1.02-1.784.08-2.55 1.44-4.334 2.98-6.374 1.7-2.294 3.23-2.974 6.04-2.634 4 .51 6.21-2.719 4.85-6.543-.6-1.615-.68-3.315-1.28-4.844-.42-1.105-.85-2.549-2.47-2.549-.93 0-1.61.594-1.95 1.359-.68 1.36.25 2.125 1.02 3.059 2.38 3.145 1.62 5.524-2.21 6.629-1.2.34-2.98.255-3.24-.595-.93-3.144-3.83-4.674-5.45-7.223-.76-1.275-.93-2.805-.76-4.334.17-2.38 1.28-3.144 3.32-1.7 1.96 1.36 3.91 2.125 6.21 1.445 1.53-.51 1.96-1.36.51-2.38-2.81-1.869-4.68-4.503-6.64-7.138-1.53-1.954-3.91-2.124-6.04-2.464-1.62-.255-1.02 1.699-1.19 2.719-.17.935.17 2.125-.94 2.465-1.1.339-1.61-.765-2.13-1.53-1.27-1.87-2.97-3.484-2.21-6.288.43-1.53-.85-2.465-1.96-3.315-3.14-2.549-4-7.138-1.87-10.452 2.04-3.144 1.36-6.798 1.96-10.112.43-2.295 1.28-3.569 3.49-3.739 2.3-.17 3.74 1.019 4.25 3.314.94 4.249 2.3 8.243.26 12.831-2.13 4.929-1.11 9.518 6.38 9.773 1.45.085 2.98 1.02 4.43 1.7 1.96.934 2.64 2.379 1.7 4.418-.6.85-.85 1.615-1.19 2.38zm-626.042-216.95c-1.107-.85-2.043-.85-2.979-.935-.936-.085-2.043-.17-2.128-1.444-.085-1.105.851-1.615 1.702-2.04 1.703-.68 4.171-.68 1.362-3.569-1.021-1.02 1.107-2.124 2.468-2.464 1.362-.34 3.234-.085 3.49-2.04.17-1.869-.852-3.484-1.958-4.844-.766-1.019-1.957-.594-2.979-.425-1.532.255-2.468-.169-2.723-1.784-.085-.34 0-.85-.17-.935-3.66-1.274-3.49-4.164-3.575-7.308 0-1.785.511-3.569 1.192-4.759 2.042-3.229 4.17-6.798 8.936-6.543 1.957.085 3.149-.765 4.255-2.21.511-.679 1.362-1.359 2.128-.849 1.021.68.17 1.529-.17 2.209-.766 1.36-1.447 2.804-2.724 3.824-.51.34-1.276.595-1.021 1.36.255.68 1.021.68 1.617.765 1.617.255 3.745-.68 4.511 1.359.766 1.955-1.192 3.229-2.298 4.504-1.277 1.36-1.277 2.295.17 3.654 4.255 3.739 6.723 8.838 9.532 13.597.851 1.444 1.447 2.379 3.149 2.379 1.447 0 2.808.255 3.234 1.955.34 1.529 0 3.059-1.362 3.909-1.106.764-1.702 1.189-.851 2.634.681 1.19-.34 2.209-1.447 2.804-1.872 1.02-4 1.955-6.042 1.36-3.404-.935-6.724-.17-10.043 0-1.106.085-2.127.255-2.893 1.02-2.468 2.464-5.873 1.019-8.766 2.124-1.107.425-.596-1.105-.085-1.699 1.957-1.87 3.574-4.249 6.468-5.609zm633.442 338.554c-2.72.51-4.76.765-6.81 1.274-5.02 1.105-9.87 1.445-14.97.255-2.9-.679-6.22.425-9.37.85-1.95.255-3.83 0-5.44-1.19-2.04-1.529-4.17-1.444-6.3-.424-3.57 1.699-7.06 1.954-10.98.594-6.47-2.294-13.36-3.059-20.25-3.739-5.45-.509-10.56-1.869-14.56-6.118-1.61-1.785-4.08-1.445-6.3-1.869-2.21-.51-2.29-1.36-.85-2.89 3.15-3.229 9.02-3.569 11.83 0 2.56 3.229 5.37 3.654 8.94 2.72 1.19-.34 2.21-.68 2.72-1.87 1.19-2.634 3.15-2.379 4.85-.765 2.13 1.955 4.51 2.21 7.07 1.7 1.19-.255 2.3-.34 3.49.085.76.255 1.78.34 2.04 1.274.25 1.105-.68 1.36-1.36 1.87-.51.34-1.19.595-1.11 1.36.17.849 1.02 1.019 1.79 1.104 2.72.51 5.28 1.445 7.91 2.38.77.255 1.79.595 2.47.255 6.3-2.805 12.26 0 18.21 1.104 4.69.85 9.03 1.02 13.11-1.614.77-.51 1.62-.595 2.47-.17 4.85 2.549 9.7 1.359 14.55 0 2.04-.595 4-.34 5.96.255.6.17 1.36.255 1.36 1.104 0 .425-.59.935-1.02 1.02-6.38 2.04-10.64 7.138-15.83 10.877-.6.425-1.19 1.275-1.87.85-.94-.595-.17-1.529 0-2.294.42-1.7 1.7-2.635 2.98-3.569 1.61-1.36 3.49-2.295 5.27-4.419zm-26.98-20.055c1.62-3.824-.08-7.563-1.36-11.387-.76-2.125-.17-4.164.6-6.118 1.7-4.419 3.57-8.668 3.57-13.682 0-4.164 3.24-6.119 7.32-5.439 3.41.595 6.9 1.02 10.3 1.53 2.72.425 4.51-1.36 6.64-2.464.85-.51 1.7-1.615 2.81-.68.93.85.68 2.124.34 3.314-1.11 3.654-6.98 6.628-10.98 5.354-2.3-.765-4.51-1.87-6.72-2.805-3.07-1.359-5.54-.68-6.73 1.955-1.1 2.379.17 6.968 2.3 7.903 1.53.68 2.64-.34 3.66-1.275 1.7-1.784 3.66-1.784 5.87-1.19 2.04.595 2.3 1.615 1.02 3.23-.08.085-.17.17-.17.254-.68 2.21-6.12 1.36-3.57 5.439 1.36 2.21.85 4.929 2.55 7.053 1.53 2.04 2.47 4.419 2.3 7.054-.17 2.039-1.02 3.739-3.06 3.654-1.96-.085-4.43-.255-4.6-3.315-.17-3.059-2.72-5.353-2.47-8.667.09-1.105-1.44-2.72-2.89-2.295-1.53.425-.77 1.955-.51 3.059.93 3.57 1.19 7.054.25 10.623-.68 2.634-2.89 2.634-4.76 2.634-2.13.085-1.36-2.039-1.71-3.739z"/><path d="M222.106 61.925c1.617.425 3.064.085 4.34-.68 5.532-3.06 11.745-3.314 17.617-4.844.851-.255 1.702-.255 2.383.51.681.935.426 1.87-.255 2.634-1.362 1.615-.766 2.21 1.106 2.55 2.043.425 3.915 1.36 5.702 2.634 2.043 1.53 4.511 1.615 6.894.17 2.128-1.275 4.255-2.72 6.468-3.994 1.702-.935 3.319-1.444 3.404 1.445 0 .68.341 1.104.851 1.614 1.958 1.785 1.788 3.06-.51 4.42-1.107.594-2.383 1.189-3.66.934-6.553-1.275-12.596.595-18.553 2.804-3.149 1.19-5.787 1.19-8.511-.934-1.872-1.445-4.085-2.72-6.723-1.955-.681.17-1.362-.085-1.617-.68-1.957-4.079-5.957-3.399-9.362-3.909-1.361-.17-3.489-.085-3.234-1.53.085-1.614 2.298-1.19 3.66-1.19zm321.533 62.034c-2.468-1.615-6.042-3.059-7.915-6.543-.68-1.19-1.106-1.615-2.468-1.785-2.212-.255-4.936-.935-5.532-2.889-.425-1.36 2.724-1.785 4.171-2.804 1.191-.85 2.553-2.04 4-.765 4.681 3.994 9.957 2.294 15.149 1.869 3.149-.255 6.297-.764 9.446-1.019 2.894-.255 6.213 1.784 6.554 3.824.34 2.039-1.788 4.503-4.766 5.523-5.702 2.125-11.575 4.079-18.639 4.589zM230.447 365.128c-5.872 0-6.042 0-6.723-5.184-.426-3.569-2.298-5.354-5.532-6.543-3.83-1.36-7.915-2.295-11.66-4.079-2.042-1.02-3.83.255-5.191 1.954-.851 1.02-1.532 2.295-2.553 3.229-.766.68-1.788 1.955-2.979.85-1.107-1.02-1.021-2.549-.341-3.824 1.788-3.314 6.894-5.523 10.809-5.184 6.979.595 13.872 1.19 20.596 3.4 3.744 1.189 6.383 3.569 8.936 6.288 1.787 1.87 3.659 3.484 6.468 3.569 1.021 0 2.298.34 2.468 1.615.255 1.274-1.021 1.784-1.957 2.209-4.256 1.955-8.852.85-12.341 1.7zm345.617-178.285c-.766-.17-1.617-.34-2.383-.595-1.107-.34-2.383-.595-2.553-2.039-.171-1.53.51-2.635 1.872-3.399 1.872-1.02 3.83-1.87.851-4.164-1.617-1.275-.34-3.399 0-4.929.255-1.105 1.872-1.105 3.064-.765 1.702.51 2.893.765 3.319-1.784.425-2.465 3.66-4.079 6.213-3.655 1.361.255 2.723.425 4 .85 2.893.85 3.659 3.314 1.617 5.524-1.107 1.19-1.107 2.379-1.192 3.739-.17 5.693-1.106 6.713-6.553 8.158-1.021.255-1.957.85-2.808 1.359-1.617 1.105-3.49 1.445-5.447 1.7zM253.17 363.683c2.893 1.105 6.297.85 9.787.34 2.042-.34 8.34 4.249 9.106 6.203.596 1.785.085 2.975-1.872 3.145-1.872.17-3.83.085-5.702.085-2.809 0-5.447.17-7.404 2.719-.937 1.275-2.979 1.615-4 .51-1.703-1.955-3.575-1.53-5.447-1.105-1.532.34-2.979.17-4.426-.17-.936-.255-2.127-.255-2.042-1.529.085-1.02.936-1.7 1.872-1.955.851-.255 1.872-.425 2.808-.34 3.32.425 4.766-1.02 4.511-4.249-.085-.595.17-1.275.17-1.869-.085-1.7.596-2.21 2.639-1.785zm1024.68 359.459c-4.51-.085-5.11-.765-3.91-5.014 1.02-3.654 2.21-7.223 3.23-10.877.6-1.955 1.36-2.975 3.15-1.02 2.47 2.634 5.45 1.615 8.25 1.275 1.62-.17 3.75-1.445 4.69-.17.85 1.189-1.2 2.634-1.79 4.079-2.21 5.013-5.53 8.922-10.73 11.047-.76.425-1.78.85-2.89.68zM275.297 84.869c-1.532 0-1.957-.85-2.468-1.615-.851-1.274-1.787-2.379-3.149-3.144-.936-.595-2.383-1.02-1.106-2.55.851-1.019 1.872-2.294 3.404-.849 2.298 2.04 3.064 1.105 3.064-1.445 0-1.104.34-2.124 1.702-2.209 3.915-.255 7.745-.68 11.659-.935.851-.085 2.213.255 1.788 1.19-1.192 2.55-.426 5.948-3.915 7.478a102.037 102.037 0 01-10.979 4.079zm930.133 256.465a30.342 30.342 0 01-2.81 9.517c-.51 1.19-1.19 1.19-2.13.255-4.26-4.334-4.51-12.491-.34-16.91 1.62-1.7 3.23-1.445 4 .849.59 2.125.85 4.334 1.28 6.289zM297.425 49.858c4.085.425 7.66 1.7 11.319 2.89 2.128.679 1.958 2.124.171 3.143-1.788 1.105-3.66 1.7-5.788 1.02-2.468-.765-4.851-1.36-7.319-2.124-1.276-.425-2.979-.425-2.723-2.465.17-1.614 1.617-2.124 2.978-2.38.596-.084 1.107-.084 1.362-.084zM1153 363.343c1.62 0 2.64.595 2.64 2.38 0 3.909-3.41 7.648-7.07 7.648-2.89 0-3.57-1.785-3.57-4.164.08-3.399 3.49-5.864 8-5.864zM322.106 53.937c.085 2.294.085 4.334-3.149 4.164-2.298-.085-5.532-3.23-5.447-5.609 0-1.36 3.745-3.654 5.788-3.569 3.404.255 2.638 2.89 2.808 5.014z"/><path d="M260.405 58.016c3.489-2.295 6.042-5.609 10.042-6.883 1.362-.425 2.639-.765 3.915 0 .851.51 1.107 1.19.511 2.124-2.298 3.91-9.958 6.458-14.468 4.759zm172.68 452.425c-.851-1.955-1.787-3.229-3.915-3.569-2.128-.34-4.085-1.02-5.617-2.72-4.085-4.503-8.851-8.073-13.702-11.727-1.106-.849-2.043-1.104-3.489-.764-4.171 1.189-8.256 1.359-12.511.17-1.958-.595-4.085-1.36-6.213-.765-1.872.51-2.042-.51-1.957-1.785.255-2.549-1.022-3.739-3.319-4.589-2.979-1.104-5.873-2.464-8.681-3.994-1.958-1.019-3.49-1.104-5.192.425-.596.51-1.021 1.36-2.127 1.19-1.022-4.249-1.022-4.249-5.107-6.798-2.042-1.275-2.723-2.89-2.128-5.099.511-1.955.086-3.399-1.702-4.249-2.042-1.02-2.893-2.804-2.978-4.844-.085-6.203-3.575-10.112-8.341-13.681-2.978-2.21-6.042-3.909-9.532-3.654-6.127.51-11.064-1.785-16.085-4.674-2.298-1.36-4.17-2.889-5.021-5.439-.681-1.954-1.958-2.974-3.83-3.909-2.383-1.274-5.362-2.294-6.553-4.674-1.106-2.124-2.468-3.569-4.426-4.758-4.51-2.635-4.51-2.635-.851-5.524-.51-.595-1.191-.34-1.702-.17-3.489.85-7.659.085-10.468 2.21-4.17 3.144-6.638-2.465-10.128-1.19-.17.085-.425 0-.595 0-5.958-.85-12.511-.34-16-6.883-.596-1.02-1.532-.68-1.958.255-1.617 3.569-4.936 5.438-7.574 7.988.255-2.72-1.021-5.864 2.298-7.649.595-.339.51-1.104.255-1.699-.34-.68-.936-1.19-1.787-1.105a5.245 5.245 0 00-3.404 1.53c-3.064 2.974-6.894 4.674-10.979 5.438-3.745.765-5.702 3.4-6.298 6.289-.681 3.059-2.383 5.014-4.17 7.138-2.128 2.549-3.575 2.294-5.787 0-4.426-4.589-9.618-5.694-14.554-2.719-3.319 2.039-5.787 1.444-8.17-.85-3.319-3.229-6.298-6.458-6.042-11.812.255-5.694 2.212-10.962 3.234-16.486.851-4.589-3.66-9.348-8.256-8.753-4.766.595-9.532.17-14.298.255-1.957 0-2.638-.765-1.872-2.804 3.489-8.583 6.894-17.251 10.298-25.833.34-.935.851-1.7-.426-2.38-6.127-3.229-15.319.34-17.531 6.713-.341.935-.681 1.785-.852 2.72-.425 2.124-1.787 3.229-3.829 3.739-3.49.85-6.979 1.954-10.383 2.804-5.192 1.36-7.405.51-10.639-3.739-1.276-1.7-2.808-3.314-3.574-5.269-1.617-3.994-3.745-8.073-2.723-12.406 1.106-4.844 2.808-9.518 4.51-14.192 1.192-3.229 2.298-6.373 1.873-9.857-.256-2.55.851-4.079 2.978-5.439 5.447-3.399 10.979-6.798 16.17-10.622 4.256-3.144 8.511-2.04 12.596-.34 3.83 1.614 6.383 1.529 9.447-1.36 1.021-1.02 1.957-2.549 3.404-2.719 4.17-.425 8.426.255 12.596-.595.596-.085 1.532.68 2.043 1.36 1.787 2.379 3.914 2.549 6.382 1.274 1.022-.51 2.043-.849 3.235.085 2.893 2.295 4.255 5.694 3.319 9.263-1.702 6.203.936 11.132 4.936 15.466.936 1.02 2.723 1.785 3.489 0 1.447-3.144 3.234-6.288 3.064-9.857-.17-4.674-.851-9.263-1.957-13.767-.596-2.719-.256-5.099 1.532-7.393 4.255-5.269 8.68-10.282 14.553-13.937 3.659-2.294 7.574-4.333 10.978-6.883 4.937-3.654 10.383-7.393 9.447-14.871-.085-1.02-.085-2.379 1.107-2.719 2.383-.595 2.978-2.38 3.744-4.334.766-1.87 1.447-3.824 4.256-3.229 1.276.255 1.872-1.19 2.638-2.04 2.383-2.719 4.255-6.033 8.085-7.308 4.34-1.445 8.681-2.719 13.106-3.654 2.298-.425 4.085-1.53 2.554-4.334-.341-.595-.511-1.275-.171-1.785 1.873-2.804 2.979-6.118 6.554-7.478 4.936-1.869 9.872-3.909 14.808-5.693 1.787-.68 3.745-1.105 5.787-1.615-.255 1.36-1.021 1.53-1.617 1.955-1.361 1.019-3.319 1.529-2.127 4.079 1.191 2.379 2.808 1.869 4.51 1.104 5.873-2.549 11.745-5.268 18.128-6.543.596-.085 1.191-.595 1.532-1.02 1.106-1.869 2.723-2.804 4.936-2.974.936-.085 2.638-.425 2.298-1.615-.511-1.699.681-4.078-.936-4.843-1.532-.765-3.064 1.019-4.256 2.209l-1.106 1.105c-3.064 3.059-6.468 3.654-10.383 1.869-3.149-1.444-4.085-5.183-1.957-7.988 1.531-1.954 2.638-4.079 3.744-6.288.766-1.53.596-2.549-1.191-3.144-2.213-.765-4.256-1.105-6.724-.255-4.425 1.529-8.681 3.654-13.106 5.439 2.468-2.295 4.596-5.014 8.17-5.609 2.383-.425 4.17-1.445 5.702-3.144 1.362-1.53 2.979-2.125 5.107-2.125 6.383.085 12.681 0 19.064 0 5.872 0 11.319-1.359 16.255-4.504 1.532-.934 3.064-2.039 5.702-2.124-1.192 1.275-2.043 2.124-2.809 2.974-4.17 4.334-8.34 8.668-12.425 13.087-.936 1.02-2.638 2.294-2.128 3.654.596 1.615 2.639.765 4 .85.936.085 1.958-.17 2.894.085 3.319.68 7.319-1.87 9.872 2.209.085.085.681.085.851-.085 2.213-1.699 3.064-.51 3.83 1.53.17.425.766.85 1.192.85 2.297.339 6.127-4.419 5.361-6.714-.681-1.954-1.021-3.824-.255-5.863.851-2.21-.341-3.144-2.298-2.72-2.638.51-3.915-.17-5.021-2.804-.766-1.784-1.787-3.059.425-4.419.256-.17.596-.85.511-1.104-1.277-2.89 1.021-4.504 2.383-6.374.511-.765 1.617-1.529 1.191-2.464-1.787-4.674-1.021-10.792-7.489-12.917-3.064-1.02-4.596-3.994-6.638-6.203-1.277-1.36.851-3.23 1.191-4.929.17-.595.085-1.275 0-1.87-.681-4.249-1.447-8.582-2.213-12.831-.51-2.89-1.106-3.145-3.404-1.105a57.366 57.366 0 01-12.681 8.328c-2.297 1.105-3.744.425-5.446-.85-1.788-1.36-2.043-3.059-1.532-5.099.425-1.614 1.446-2.804 2.553-3.909.851-.849 1.532-2.124-.17-2.379-4.596-.765-6.383-4.929-9.617-7.223-.766-.51-1.532-1.785-2.383-1.19-3.405 2.464-7.064.68-10.468.51-5.703-.255-5.873-.68-8.341 4.334-2.723 5.523-4.851 11.472-10.468 14.956-1.191.765-1.106 1.785-.17 2.974 2.468 2.89 2.128 7.818-1.277 10.028-4.51 2.974-8.851 6.628-14.638 7.223-1.957.255-3.064 1.19-3.489 3.144-.596 2.804-1.703 5.524-1.958 8.328-.425 4.844-4.51 5.694-7.659 7.648-.937.595-1.532-.17-1.873-1.02-.425-1.019-.681-2.039-1.191-2.974-.851-1.615-1.022-2.549 1.276-3.144 1.617-.425 2.639-1.785.341-2.974-1.277-.68-1.362-1.53-.936-2.55a42.337 42.337 0 011.787-4.079c1.617-3.059 1.532-3.229-1.873-3.569-2.382-.255-5.106-.085-7.148-1.105-2.383-1.274-4.511-2.974-7.32-3.399-.425-.085-.851-.595-1.191-1.019-3.064-3.739-6.894-5.694-11.745-5.439-1.702.085-2.383-.68-2.298-2.209 0-1.19.085-2.38.426-3.485.425-1.614.596-2.889-1.617-3.229-1.107-.17-1.872-.935-.766-1.954 2.808-2.72 5.021-6.204 8.681-7.818 11.489-5.014 21.702-12.407 33.617-16.571 5.021-1.7 9.532-4.419 14.042-7.223-2.383 3.229-5.191 6.033-8.766 7.988.937 1.274 2.468.68 2.894 1.869.851 2.465 2.723 1.7 4.17 1.105 1.447-.51 2.809-1.53 4-2.549 1.617-1.53 3.234-1.275 4.936-.255.596.34 1.107 1.019 1.788 1.359 1.872.935 4.17 1.615 5.446-.34 1.362-1.869.256-3.824-1.617-5.098-2.127-1.53-4.34-3.059-6.383-4.674-.766-.595-2.212-1.36-1.532-2.464.766-1.275 2.043-.34 2.979.255 1.107.764 2.213 1.699 3.319.424 1.703-1.954 4-2.379 6.298-2.549 3.234-.255 5.873-2.124 7.575-4.249 1.872-2.464 2.808-5.693 5.021-8.073.17-.17-.085-.765-.255-1.19-1.022-2.124.34-2.379 1.872-2.379 3.745 0 7.574.935 11.064 0 4.085-1.02 6.383.68 8.851 3.06.596.594 1.617.934 1.191 1.954-.34.935-1.276 1.105-2.127 1.19-1.958.254-4 .424-5.958.764-2.127.34-3.234 1.955-3.234 3.739 0 1.87 2.043 1.445 3.234 1.7 1.617.34 3.149-.17 4.341-1.36 1.021-1.019 2.042-2.294 3.319-2.974 1.702-.85 3.83-1.445 5.021.765 1.192 2.124.085 3.654-1.872 4.589-2.213 1.104-4.341 2.209-6.553 3.229-.851.425-1.958.68-2.128 1.784-.511 3.909-3.575 3.23-6.043 3.315-1.532.085-3.149-.34-4.68-.765-3.405-.935-5.362 1.189-7.49 3.059-.851.765-.255 1.53.256 2.209 2.127 2.635 4.425 1.53 6.808.34 5.532-2.719 7.574-2.124 10.894 3.145.425.679.851 1.444 1.191 2.209.681 1.7 1.872 2.719 3.66 3.229 3.915 1.19 7.829 2.465 11.829 3.654.937.255 2.128 1.275 2.894.255.766-1.105.085-2.379-.596-3.569-.936-1.53-2.553-2.804-3.149-4.504.596-.68 1.192-.51 1.617-.255 1.873 1.275 3.575 2.55 5.447 3.824 2.128 1.445 3.915 1.7 4.766-1.359a3.77 3.77 0 011.958-2.465c2.638-1.359 1.957-3.144.595-4.928-1.021-1.275-2.298-2.295-3.149-3.57-1.276-1.784-1.106-3.569.681-5.013 1.958-1.53 3.064-.17 4.17 1.274.852 1.105 1.618 2.295 2.554 3.23 1.361 1.359 3.319 2.209 4.851.934 3.234-2.719 7.574-3.399 10.808-6.203.596-.51 1.532-1.02.681-1.615-3.574-2.719-6.042-7.308-11.489-6.968-1.277.085-2.213-.595-2.809-1.7-.595-1.104.256-1.784.851-2.464 3.915-4.419 1.192-7.478-3.234-8.838-1.787-.51-3.319-1.104-4.51-2.634-.426-.51-1.277-1.19-1.873-1.105-4.766.595-6.638-2.889-8.936-5.948-1.872-2.55-4.255-3.4-7.489-2.974-3.745.51-7.49 1.36-11.149-.51-.681-.34-1.702-.17-2.468.085-4.596 1.104-9.447 1.7-13.022 5.353-.34.34-.851.765-1.361.17-.17-2.889 3.489-2.974 4.17-5.523-.596-.17-1.021-.34-1.447-.34-8.766.085-15.574 4.334-21.276 10.537-2.298 2.465-.681 5.524 2.723 6.034 1.021.17 2.043.425 3.149.51 2.468.17 2.723 1.36 1.362 3.059-3.745 4.928-9.277 7.393-14.554 10.197-.595.34-1.276.255-1.617-.51-.34-.68-.51-1.444.086-2.124a11.04 11.04 0 011.957-1.53c1.532-.935 1.191-2.294.936-3.654-.255-1.275-.936-2.21-2.298-2.21-2.978.086-3.574-1.529-3.404-3.993.085-1.19 0-2.295-.17-3.484-.681-4.93.851-7.139 5.872-7.139 5.787 0 9.787-3.739 14.383-6.543a42.93 42.93 0 00-7.149-1.105c-5.787-.425-10.893.85-14.127 6.374-.426.765-1.362 1.36-2.128 1.954-3.745 2.974-7.915 5.269-11.915 7.818-1.277.85-2.468 1.7-2.553 3.4 0 2.294-1.277 2.719-3.149 2.124-3.83-1.19-7.319-.17-10.724 1.444-1.531.68-2.808 1.53-2.723 3.484.085 2.125-1.277 2.635-3.149 2.635-3.149-.085-6.298.255-9.532.51-3.83.255-7.659.085-10.808-2.635-2.894-2.549-11.575-2.04-13.702 1.19-1.447 2.21-2.894 2.295-5.022 1.955-2.893-.51-5.872-.425-8.851 0-1.872.34-3.744.594-5.702.764-.851.085-1.872-.17-2.128-1.019-.34-1.02.766-1.105 1.362-1.445 2.213-1.105 1.787-1.954-.085-2.89-1.362-.68-2.638-1.274-4.17-1.444-4.426-.68-8.766-1.445-13.021-2.72-2.128-.679-4.426-.509-6.639-.084-1.021.17-2.298.51-2.893-.595-1.192-2.464-2.809-1.53-4.511-.765-1.787.765-3.489 1.275-4.425-1.19-.766-1.869-2.128-1.274-3.49-.764-6.298 2.294-12.936 3.144-19.489 4.588-1.107.255-2.128.085-3.149-.34-2.128-.934-3.915-.424-6.043.255-4.425 1.445-9.276 3.145-13.532.765-4.851-2.804-9.872-3.399-15.149-3.569-12.595-.34-25.02-1.87-36.936-6.373-.595-.255-1.276-.255-1.872-.085-6.468 1.7-13.192 2.21-19.575 4.164-10.042 3.06-19.83 6.798-30.212 8.498-3.83.594-4.51 1.954-3.66 5.778.255.935.51 1.785.851 2.72.34 1.104 0 2.039-1.191 2.039-1.787.085-4.17 2.209-5.107-1.275-.17-.679-.85-.595-1.361-.51-6.043 1.7-12.085 3.23-18.043 5.099-2.128.68-2.042 3.229-2.042 4.929.085 1.615 1.957 1.105 3.149 1.19 2.808.17 5.617.934 8.51.594.936-.085 2.383-.764 2.468.935.085 1.275-.34 2.635-1.702 3.144-.766.34-1.617.34-2.468.34-3.49 0-6.979-.255-10.043 2.04-.595.425-1.617.51-2.468.51-6.808.17-12.34 3.484-17.702 7.138-2.127 1.445-3.49 3.739-4.425 6.118-1.277 3.06-.17 4.249 3.149 3.909.85-.085 1.787-.764 2.808.085-.425.595-.85 1.19-1.191 1.785-.426.765-1.617 1.444-1.192 2.464.51 1.19 1.872.68 2.894.68 2.128.085 4.255.085 6.298.255.68.085 1.617.425 1.702 1.19.17 1.019-.936 1.019-1.532 1.274-15.404 6.034-31.234 12.662-47.575 17.761-2.042.595-4.17 1.105-5.957 3.399 10.298-1.275 19.83-3.654 29.362-6.118 8.595-2.295 17.106-4.929 24.595-9.858 1.703-1.105 3.575-2.039 5.617-2.124 5.192-.17 9.958-1.955 14.809-3.315 2.213-.594 4-1.869 5.617-3.399.68-.68 1.532-1.529.596-2.464-1.958-2.04.085-2.04 1.106-2.125 4.34-.254 8.255-1.869 12.17-3.484.596-.255 1.277-.764 2.043.17-2.809 1.955-5.532 3.824-8.255 5.779.595.85 1.191.595 1.617.51 7.574-1.445 15.319-2.465 22.212-6.204 1.788-1.019 3.49-1.104 5.362 0 4.596 2.55 9.702 3.484 14.894 4.249 4.936.765 8 4.759 7.574 9.773-.255 3.484-.596 6.968-.68 10.452-.086 5.184 0 5.184 5.19 5.099 1.022 0 2.128-.17 1.703 1.359-1.787 5.949-1.362 11.897-.596 17.931.255 2.039-.51 3.059-2.723 2.294-2.639-.934-3.404.68-3.49 2.89-.17 2.889 2.128 4.333 3.915 5.863 2.639 2.379 4.34 4.419 1.447 7.818-1.191 1.36-1.617 3.399-2.213 5.269-1.617 4.843-4.34 8.752-7.66 12.577-3.148 3.569-7.404 6.628-8.425 11.642-.85 3.909-2.723 7.053-5.532 9.687-.85.765-1.957 1.785-1.617 2.974 1.022 4.079-1.106 8.073-.17 12.152.766 3.399 1.021 6.883 1.362 10.368.596 5.353.51 10.792 7.064 13.171 4.17 1.53 5.191 5.269 5.702 9.433.68 6.713-.256 13.851 4 19.885 1.106 1.614-.085 2.464-1.192 3.314-1.021.765-2.213 1.53-1.106 3.059 1.617 2.21 2.808 4.589 5.447 6.034 3.574 1.954 4.17 3.569 3.319 7.393-.426 1.699-.17 3.229 1.362 4.249 2.893 2.039 4.68 4.928 5.957 7.988 1.021 2.379 2.043 1.869 3.404.425 1.021-1.105.936-2.21.34-3.485-.85-1.699-1.701-3.399-2.382-5.183-3.234-8.498-5.277-17.336-8.851-25.664-1.362-3.144-3.405-6.118-1.958-9.942.596-1.445.426-3.399 2.723-3.229 2.298.17 4.086.849 4.256 3.654.085 2.124.51 4.164.68 6.288.511 5.269 3.83 9.093 6.894 13.002 1.702 2.209 2.979 4.419 1.958 7.223-.766 2.209.596 3.654 1.787 5.099 3.32 4.079 6.468 8.413 10.213 12.067 4.085 3.994 3.404 8.328 1.702 12.746-1.362 3.484-.936 6.544 2.127 8.668 4.511 3.229 9.192 6.119 13.873 9.093 4.936 3.059 9.872 6.033 15.064 8.498 4.17 2.039 8.51 3.399 13.446 1.699 5.447-1.869 8.171-.51 12.086 3.994 2.127 2.38 3.489 5.949 6.893 6.714 5.958 1.444 11.575 4.163 17.702 5.013 1.362.17 2.128.85 2.298 2.21.426 2.549 1.787 4.504 3.66 6.118 1.532 1.36 2.213 2.974 2.127 5.099-.085 1.529 0 3.059 1.447 3.994 4.256 2.549 7.234 6.458 10.639 9.942.595.68 1.276 1.19 2.212.935 3.405-.68 5.958.85 8.085 3.229 1.022 1.19 2.128 2.465 4.086 1.53 1.617-.85 2.127-2.04 1.872-3.909-.256-2.125 2.042-4.844 4.085-4.844 2.468-.085 3.915 1.53 4.34 3.824.341 1.445.511 2.974 1.532 4.079 2.043 2.464 2.639 5.184 2.468 8.328a66.679 66.679 0 000 8.243c.426 5.099-1.872 8.753-5.872 11.557-1.447 1.02-2.638 2.124-2.468 4.079.17 1.869-.851 2.974-2.553 3.399-1.702.425-2.639 1.7-2.979 3.314-.681 2.974-1.872 5.779-3.149 8.583-1.277 2.974-1.617 6.288 1.106 8.498 2.979 2.379 1.788 3.654-.17 5.608-1.787 1.87-4.17 3.739-3.064 6.799 1.532 4.419 1.873 9.517 6.639 12.152.595.339 1.021 1.104 1.276 1.784 6.894 14.956 17.277 28.128 23.915 43.254.766 1.7 1.873 2.974 3.404 4.079 6.724 4.759 13.362 9.688 20.171 14.361 2.553 1.785 4 3.909 4.681 7.054 2.893 12.916 3.404 25.918 3.659 39.005.17 10.537-.681 21.414 3.319 31.612.256.68.256 1.444.256 2.209.17 7.733-.341 15.381-1.107 23.114-.51 4.674-1.106 9.178 2.128 13.257 1.447 1.869 1.617 4.249 1.617 6.713.085 5.439 1.191 10.707 2.979 15.806.085.34.17.595.34.935.511 1.36 1.532 2.124 2.979 1.699 1.702-.509.766-1.869.595-2.889-.17-.935-1.361-2.379 0-2.719 1.532-.425 1.447 1.445 1.703 2.464a64.14 64.14 0 011.361 6.799c.256 1.444.596 2.719-1.957 2.889-1.447.085-3.83 1.869-2.724 3.399 1.958 2.549 1.022 4.674.511 7.138-.511 2.464-.255 4.504 3.064 5.014 2.638.34 3.319 2.039 1.872 4.334-1.106 1.784-1.021 3.144.085 4.928 4.171 6.884 8.851 13.427 14.043 19.546 6.298 7.308 13.532 13.001 23.489 14.531 4.085.68 8 1.869 11.915 3.399h1.277c2.042-1.36 4.17-2.549 6.127-3.994 1.703-1.275 1.703-2.634-.595-3.399-1.022-.34-2.043-.595-2.979-1.02-3.489-1.445-7.404-1.954-10.043-5.099-2.042-2.464-4.255-4.673-6.383-7.053-2.553-2.804-2.723-5.523-.766-8.668.341-.509.681-1.274.596-1.784-1.106-3.994.766-6.883 2.979-9.858 1.106-1.444.851-2.804-.936-3.569-1.617-.68-2.809-1.869-4-3.059-4-3.994-3.915-7.138.255-11.047.766-.68 1.277-1.53 1.021-2.549-1.021-3.655-.17-6.544 2.639-9.178 1.446-1.36 1.276-2.804-1.192-2.719-2.723.085-4.255-1.53-5.362-3.74-.595-1.104-1.446-2.379-.595-3.569.851-1.189 2.127-.085 3.234.085 5.447.935 8.425-1.954 7.574-7.393-.596-3.569.851-5.183 4.426-4.674 6.468.85 12.851-2.464 15.149-8.072 1.617-3.74.255-8.243-3.064-10.538-.681-.425-1.192-1.02-1.362-1.699a16.846 16.846 0 00-3.574-7.054c2.127.085 3.064 1.36 4.255 2.125 5.021 3.569 10.043 3.059 14.383-1.105 4.851-4.674 6.128-10.962 8.085-16.911.766-2.464 1.106-5.013 4.511-5.183.936-.085 1.447-1.105 2.042-1.87 4-6.118 6.213-12.661 4.511-20.14-.596-2.719-.17-5.438 2.298-7.138 6.808-4.759 13.361-9.942 21.702-12.152 7.489-1.954 11.319-7.988 13.191-14.956 1.703-6.288 2.724-12.832 3.66-19.29.681-5.014 1.106-10.112.766-15.126-.255-3.314.511-5.779 2.298-8.243 5.361-7.053 9.532-14.871 13.617-22.774 2.553-5.694 2.553-10.538.085-16.146zm-181.362-88.548c-.51.425-.936-.17-1.276-.51-.766-.679-1.192-1.529-.596-2.464.425-.68 1.106-1.19 1.702-1.784.17.764.426 1.614.511 2.379.085.85.425 1.784-.341 2.379zM1337 116.821c-.85-1.445-3.07-2.464-.26-4.249.77-.51-.59-1.615-1.36-2.124-2.64-1.7-5.62-2.38-8.68-2.89-8.51-1.274-16.85-3.144-25.19-5.183-12.85-3.145-25.28-7.903-38.55-9.178-8.09-.765-16.17-2.125-24.17-3.23-.69-.084-1.62-.424-1.96.426-.34.85.59 1.274 1.1 1.7 1.2 1.104 2.9 1.784 3.49 3.398-.59.595-1.1.34-1.61.255-10.98-2.124-21.96-3.144-33.11-2.889-4.08.085-8.51.085-11.57-3.824-.51-.68-1.71-.85-2.56-1.02-6.81-1.19-13.53-2.38-20.51-2.04-3.49.17-6.98-.084-10.47-.254-8.76-.51-16.59-5.184-25.44-5.099-2.98 0-5.88-.595-8.85-.68-5.2-.17-10.22-1.954-15.41-.85-.76.17-1.96-.255-2.21.765-.26.935.94 1.275 1.45 1.87.59.68 1.87.765 1.61 2.38H1097c-1.28 0-2.55-.086-3.66-.766-2.13-1.19-3.15-.594-3.07 1.87 0 1.53-.51 3.144-2.38 2.21-4-2.04-8.68-2.805-12.17-6.034-1.87-1.785-3.74-3.74-6.55-4.334-5.62-1.105-11.24-2.294-16.77-3.484-1.27-.255-2.55-.595-3.66.34-1.44 1.275.94 2.124.34 3.739-4.68-.935-9.53-.51-14.38-.85-.51 0-1.11-.34-1.45-.68-1.7-1.7-3.74-1.784-5.87-1.7-2.64.086-5.28-.084-7.91.086-2.81.17-5.11-.51-7.32-2.295-2.56-2.124-6.13-2.21-8.34.255-2.81 3.144-6.216 2.465-9.62 2.804 2.723-1.87 5.617-3.399 8.43-5.098 1.36-.85 3.31-1.53 2.8-3.74-.51-2.039-2.04-2.889-4.08-3.568-6.98-2.295-14.299-1.615-21.363-2.38-2.128-.255-4-.255-5.106-2.38-.511-1.019-1.617-1.359-2.724-1.444-4.936-.34-9.702 0-14.383 1.7-.681.255-1.617.51-1.702 1.274-.34 4.42-3.659 4.164-6.553 3.994-10.128-.764-19.745 2.21-29.447 3.994-1.361.255-2.553.935-3.915 1.36-1.276.51-1.446 1.105-.34 2.04.596.51 1.787.85 1.447 1.87-.341 1.104-1.532.849-2.468.849-2.894 0-5.702-.085-8.596-.255-1.192-.085-2.298 0-3.404.34-.681.17-1.617.255-1.788 1.105-.255.934.681 1.274 1.192 1.614 3.064 1.955 5.021 6.119 9.872 5.014-2.127 1.87-3.915 1.36-5.787.34-3.404-1.87-7.149-2.72-10.979-2.465-1.787.085-4.085.51-4 2.72.085 2.124 1.958 2.719 4 2.719.085 0 .256.255.341.425-2.554 1.784-5.532.935-7.149-2.21-.936-1.87-1.702-3.824-2.638-5.778-.852-1.615-2.468-2.04-3.745-1.02-1.872 1.445.425 2.125 1.021 2.805 1.447 1.53 2.724 2.719 0 4.248-1.021.595-1.191 1.955-1.276 3.145 3.319.51 5.532 1.784 5.957 5.693.34 3.654 4.681 5.354 7.83 3.57.51-.34 1.106-.68 1.702-.766.936-.254 1.872-.424 2.723.255.171.17.256.595.085.85-.595 1.105-1.532.765-2.468.765-2.723 0-3.915 1.36-2.468 3.06 2.553 2.888.596 5.013-1.021 6.967-1.702 2.04-4.085 1.36-6.383.765.255-1.444 1.447-1.869 2.128-2.549 2.127-2.21 2.042-5.694-.341-7.478-3.744-2.805-6.213-6.544-7.744-10.962-2.213-.935-4.171-1.955-3.32-5.1.426-1.784-.595-2.973-2.638-3.143-1.787-.17-3.574-.51-4.936-1.87-2.213-2.124-4.766-1.7-6.213 1.02-.681 1.274-1.276 2.72-1.276 4.249 0 .935-.085 2.04-.936 2.55-2.724 1.529-2.298 3.058-.086 4.673.341.255.681.68.766 1.02.085 3.739 2.894 4.504 5.702 5.353.766.255 1.617.595 2.298 1.02 1.192.68 2.213 1.785 1.532 3.144-.851 1.615-2.042.255-2.978-.17-6.128-2.634-12.426-4.844-19.064-5.863-4.851-.68-10.043-.17-14.128-3.654-.255-.255-.766-.34-1.191-.34-.852-.085-1.788-.085-2.213.765-.596 1.104.51 1.444 1.106 1.954 1.617 1.275 3.66 1.615 5.447 2.55.766.424 1.362 1.02 1.277 2.039-.086.595-.426.935-1.022 1.105-.851.17-1.617-.255-1.872-.935-1.107-2.634-2.723-1.955-4.511-.935-1.106.595-2.298 1.275-3.489 1.36-3.234.17-6.298.595-9.021 2.55-1.192.934-1.702.084-1.532-1.19.17-1.615-.511-2.55-2.213-2.125-7.234 1.785-14.383 3.909-20.17 8.838-1.107.935-2.298 1.104-3.575.68-1.532-.51-3.149-1.19-1.106-2.975 1.277-1.189.681-2.209-.085-3.314-1.702-2.55-4.255-2.464-6.809-2.294-1.276.085-3.063-.68-3.829.68-.681 1.19 1.106 1.869 1.617 2.804.51.85.68 1.784.766 2.719.085 1.105.425 2.04 1.276 2.804.596.595 2.043 1.02 1.192 2.125-.596.85-1.873.425-2.724.085-2.042-.85-3.83-1.275-5.532.595-1.361 1.444-2.808 2.464-4.766 2.974-1.276.34-2.042 1.19-1.361 2.634.34.68.851 1.36.17 2.04-.851.765-1.532-.085-2.298-.34-2.638-.85-5.106-2.125-8-1.445-.851.17-2.043.34-2.043 1.615 0 1.02.851 1.699 1.788 2.039.51.17 1.021.255 1.532.34.851.17 1.957.255 1.702 1.36-.256 1.275-1.447 1.19-2.383.765a159.596 159.596 0 01-8.596-4.079c-1.106-.595-2.383-1.87-1.957-3.059.851-2.635-.171-3.994-3.064-4.759 2.042-.68 3.489-.17 4.936-.085 6.213.51 12.425 2.889 18.553-.85 1.787-1.105 3.234-1.955 3.149-4.249-.17-2.379-2.043-2.719-3.745-3.144-8.425-2.125-16.936-3.994-25.276-6.374-4.596-1.274-9.022-2.974-13.787-2.634-.426-1.36 2.382-2.72.51-3.314-3.83-1.275-7.659-3.824-11.83-1.87-2.468 1.105-4.766 1.7-7.319 1.02-3.83-1.02-7.574-.255-11.234.765a160.068 160.068 0 01-8.681 2.04c-7.829 1.614-14.808 5.183-22.468 8.412.766.51.936.68 1.277.765 1.021.34 2.638-.425 2.979 1.105.255 1.275-.766 2.379-1.617 3.314-.426.51-.937.935-1.447 1.19-5.192 2.974-8.426 7.478-10.128 13.256-.596 2.04-2.298 4.929-4.511 3.909-4.34-1.954-7.829 0-11.148 1.53-4.086 1.785-7.405 4.759-8.596 9.518-1.277 5.183 2.808 9.347 2.298 14.361 0 .255.34.51.51.765 3.319 3.739 9.362 4.249 13.447 1.274 1.192-.849 2.383-1.784 3.66-2.464 3.659-2.039 3.744-2.039 5.021 1.87.425 1.104 1.106 1.954 1.787 2.974 4.17 6.033 5.617 8.498-3.234 10.452-.17 0-.34-.17-.596-.34.341-.935 1.362-2.039.596-2.889-1.362-1.615-1.702-3.229-1.532-5.269.085-.934-.681-1.444-1.702-1.359-4.851.255-9.276 5.183-8.851 9.942.17 2.04 1.362 3.739 2.213 5.524 1.957 3.824 1.276 5.098-3.234 5.608-3.66.425-7.319.935-10.809 2.38-1.447.595-2.723 1.359-2.978 3.059-.766 6.373-5.362 8.668-10.724 10.027-1.957.51-2.979 1.53-3.83 3.314-1.872 3.994-7.915 5.864-11.659 3.909-.766-.424-1.447-1.699-2.383-.934-.851.68 0 1.784.255 2.634.681 2.974.341 3.314-2.723 2.634-2.553-.594-5.022-.424-7.575-.17-1.617.17-2.808 1.19-2.978 2.805-.171 1.529.936 2.209 2.127 2.804.851.34 1.702.85 2.639 1.19 7.404 2.464 11.404 11.727 8.851 19.29-.852 2.549-2.298 3.994-4.937 4.249-6.553.68-12.936-1.19-19.489-1.105-3.064.085-5.702-1.36-9.021.765-2.213 1.444-2.724 2.379-2.213 4.589 1.277 5.353.681 10.452-1.872 15.296-1.532 2.889-2.043 5.948 0 9.007.766 1.105 1.106 2.635.595 3.994-1.106 2.975.766 3.74 2.809 2.89 5.106-2.125 7.745 0 9.362 4.589.17.509.68.849 1.021 1.189.425.51.596 1.105.255 1.785-2.042 3.739-2.723 8.328-7.149 10.537-2.042 1.02-3.915 2.549-5.787 3.909-5.191 3.739-7.745 8.753-6.979 15.211.171 1.615.085 2.89-1.106 4.079-2.468 2.295-4.426 5.354-7.489 6.799-5.447 2.634-9.788 6.373-13.362 11.302-1.958 2.719-4.596 5.013-4.511 8.752 0 .595-.255 1.445-.681 1.7-4.425 2.719-6.127 6.968-7.149 11.727-.255 1.36-1.276 2.719-2.212 3.824-2.298 2.634-2.213 5.269-.341 8.073 1.192 1.785 2.894 3.569.851 5.948-.595.68.086 1.615.511 2.38.766 1.444.681 3.059.936 4.589.936 5.013-2.127 9.177-2.893 13.766-.341 1.955-.852 3.654-2.724 4.759-1.447.935-1.702 2.379-.34 3.399 2.638 2.04 2.638 4.419 1.872 7.393-.851 3.229 1.277 7.988 3.915 9.263 7.149 3.569 11.489 9.347 13.702 16.826.851 2.974 2.128 5.438 4.681 7.563 6.213 5.268 13.532 9.092 19.83 14.276 2.298 1.955 4.17 1.955 6.808.595 7.319-3.994 15.064-4.419 22.979-1.615 1.021.34 2.042.68 3.064.255 4.425-2.039 9.276-3.484 13.191-6.203 4.426-3.059 8.936-1.87 13.447-2.04 5.872-.17 8.085 3.994 9.872 8.668.851 2.125 2.128 3.399 4.851 2.889 2.383-.51 4.851-.17 7.32-.17 5.702 0 8.936 3.145 8.68 8.753-.255 5.439-.68 10.962-3.404 15.976-1.532 2.719-1.191 5.269.766 7.648 8.511 11.047 14.553 23.539 19.234 36.626.426 1.105.936 2.294.17 3.314-1.446 2.04-.936 3.994 0 5.948 3.064 6.204 2.128 12.237-.51 18.271-2.298 5.268-4.851 10.367-6.043 15.976-1.021 5.183-.51 10.367 1.021 15.296 1.277 4.164 3.745 8.073 5.532 12.067 3.915 8.583 8.766 16.91 7.66 27.023-.255 2.719-.255 6.033 1.362 8.668 5.276 8.838 8.851 18.44 13.532 27.618.68 1.359 1.361 3.144.51 4.249-2.127 2.549-.681 4.418.596 6.458.596.935 1.106 2.039 1.532 3.144 1.191 3.484 3.659 4.419 7.149 3.569 5.957-1.444 11.83-3.994 18.298-2.379 1.617.425 3.404.17 4.936-.765 2.468-1.615 5.276-2.124 8.17-2.294.936-.085 1.957-.17 2.638-.85 3.49-3.654 7.745-6.543 10.979-10.452 3.83-4.759 6.979-10.113 11.66-14.107 5.021-4.249 6.553-9.602 6.212-15.721-.085-2.634.511-4.589 2.639-6.033 2.212-1.445 4.425-2.89 6.808-4.164 2.298-1.275 3.404-3.059 4.085-5.609 1.107-4.164 1.447-8.328-.17-12.152-2.894-6.798-.851-11.472 4.936-15.551 4.596-3.229 7.83-8.158 13.532-10.197 6.383-2.295 9.872-6.968 9.447-14.107-.17-2.634-.255-5.353.17-7.903.596-3.654.341-7.138-.681-10.622-1.787-6.203-3.574-12.407-5.191-18.61-1.532-5.864-2.383-11.642.17-17.591 2.808-6.458 5.872-12.576 10.723-17.76 5.873-6.289 10.894-13.427 17.532-19.12 3.149-2.72 6.979-4.844 9.277-8.583 2.723-4.504 5.532-9.008 8.255-13.512 6.213-10.197 12.766-20.31 12.766-32.886 0-1.02.511-2.21-.681-2.805-1.021-.594-2.383-.849-3.319 0-2.042 1.87-4.681 2.04-7.149 2.125-3.744.085-7.319.935-10.808 2.124-3.149 1.02-6.298 1.955-9.362 2.975-.936.255-1.787.594-2.723.085-2.554-1.275-4.596-4.844-4.426-7.903.085-1.02-.085-1.87-.766-2.635-5.532-6.713-11.149-13.256-17.872-18.865-3.064-2.549-5.362-5.354-6.043-9.263-.596-3.229-1.957-6.033-4.595-8.073-1.873-1.444-2.469-3.229-2.383-5.523.085-2.295.595-4.759-.766-6.798-7.064-10.963-12.851-22.605-17.873-34.587-.425-1.104-2.042-2.209-.936-3.314 1.192-1.189 3.064-.765 4.511-.17.766.255 1.446.935 1.957 1.53 3.404 4.334 7.234 8.243 9.702 13.256 1.532 3.23 3.745 6.119 5.788 9.093 1.532 2.125 2.468 4.334 2.723 6.968.511 4.844 2.298 9.178 6.553 12.152 1.787 1.275 3.915 2.635 4.511 4.844 1.191 4.334 4.085 7.308 7.149 10.282 1.361 1.36 2.638 2.72 2.127 5.099-.68-.425-1.191-.68-1.702-1.02-.766-.509-1.362-1.699-2.383-.594-1.021 1.019-.681 2.294.341 3.059 4.851 3.569 5.957 9.007 7.489 14.276 2.043 7.053 3.319 7.648 10.468 5.779.936-.255 1.872-.51 2.383-1.445.851-1.53 2.213-2.039 3.745-1.784 5.021.849 9.191-2.295 12.851-4.334 4.425-2.465 8.851-4.759 13.446-6.884 1.447-.679 2.809-1.444 3.15-3.229.34-1.784 1.617-2.549 3.319-3.059 2.468-.68 4.851-1.53 7.319-2.209 2.128-.51 3.744-1.36 4.085-3.74.17-1.019.936-1.614 1.957-1.784 4.256-.765 5.447-5.184 8.596-7.308.426-.34.511-1.36.596-2.04.085-1.869-.17-3.994 2.808-3.739.766.085 1.447-.934 1.277-1.614-.936-3.23 1.617-5.014 2.979-7.224 1.021-1.699 2.212-3.739.681-5.268-3.234-3.059-5.788-7.223-11.064-7.138-1.702 0-3.234-.51-3.915-2.21-1.106-2.719-2.894-5.183-2.809-8.328 0-.68.171-1.614-.595-2.039-1.022-.51-1.532.425-2.128 1.02-1.617 1.529-3.234 3.059-4.766 4.673-2.809 2.89-6.043 4.844-10.043 5.609-3.829.68-4.766.17-4.68-3.569.085-2.804-1.192-4.844-2.809-6.883-.766-.935-1.277-1.19-2.213 0-2.042 2.634-3.234 2.634-4.085-.51-1.447-5.439-5.021-9.178-8.51-13.087-1.532-1.699-2.128-3.654-1.107-5.524 1.192-2.294 3.064-3.908 6.043-3.993 2.383-.085 3.574 1.104 4.595 3.059 2.043 4.079 4.256 7.988 7.745 11.132 2.298 2.124 5.362 2.464 7.66 4.334 4.34 3.484 8.51 2.804 12.766-.255 2.042-1.445 4.851-.595 5.106 1.869.34 3.315 2.213 4.504 5.191 4.759 1.532.17 3.064.68 4.681.935 9.447 1.53 18.894 3.654 28.681 2.209 4.681-.679 9.192.34 12.511 4.589 2.383 3.059 5.276 5.694 9.106 7.223 1.617.595 4 1.19 1.447 3.739-.681.68.085 1.785.425 2.635.937 2.294 3.064 3.399 4.937 4.844 4.51 3.314 8 2.124 9.532-3.315.17-.594.255-1.359 1.021-1.359.766 0 .936.765 1.106 1.359.17.85.256 1.7.341 2.55.766 5.778 1.276 11.557 2.893 17.165 2.553 8.753 5.873 17.166 9.702 25.409 4.171 8.838 8.426 17.76 10.809 27.363.766 2.974 2.893 4.164 5.362 4.674 2.383.51 3.063-1.785 4.085-3.314.17-.255.34-.595.513-.85 1.02-1.36 1.95-3.229 4-2.21 1.87.935 3.74 2.04 2.98 4.844-.77 3.144.17 6.289.85 9.348.59 2.634 2.98 3.994 4.93 3.229 2.98-1.19 6.39-7.563 5.02-10.452-1.78-3.824-4.17-7.394-7.74-9.943-.77-.51-2.04-1.444-2.72-.085-.77 1.615-1.62 1.615-2.56.595-.93-1.02-.68-2.379.43-2.974 2.13-1.275 2.21-3.144 2.13-5.184-.09-2.039.08-3.994.42-6.033.85-5.439 1.28-10.878-.68-16.316-.42-1.19-.68-3.059.6-3.399 4.85-1.53 7.32-5.269 9.78-9.178.51-.85 1.71-1.19 2.56-1.785 4.08-2.889 7.66-6.288 9.78-10.962.43-.935 1.11-1.614 2.05-1.869 3.32-1.02 4.93-2.975 5.02-6.714.08-3.229 3.23-5.268 5.79-3.824 1.78 1.02 3.14.68 4.76.255 1.7-.51 3.49-.934 5.28-1.104 1.87-.17 3.32-.765 4-2.55.68-1.784 1.45-1.105 2.21-.17 1.45 1.53 1.36 3.739 2.21 5.524 1.79 3.994 3.24 8.328 8.51 9.008.69.085.94.594.77 1.104-1.28 3.144.77 4.419 2.89 6.034 1.96 1.529 3.07 3.739 2.3 6.458a11.846 11.846 0 00-.25 3.484c.08 1.955-.6 4.164 1.95 5.184 2.64 1.02 5.03 1.445 7.24-1.02 1.19-1.359 2.89-2.209 4.17-3.314 1.87-1.7 2.81-1.02 3.4 1.19 1.96 6.798 4.6 13.426 5.96 20.395.77 4.078 3.74 8.412.68 12.831-.17.17-.08.68.09.935 1.02 2.974.08 5.864-.34 8.753-.26 1.529-.26 2.974.08 4.419.34 1.274.68 2.294 2.38 1.529 1.62-.765 2.64.255 3.41 1.445 2.38 3.824 4.85 7.733 7.23 11.557.51.85.68 1.785.34 2.719-1.78 4.504.51 7.733 3.15 11.132 3.83 5.099 10.98 6.034 13.87 12.067.34.68 1.45.935 2.3.51.77-.425.6-1.274.68-1.954.34-2.89-.93-5.354-2.47-7.648-1.87-2.805-2.89-5.779-2.63-9.263.17-1.53.25-3.314-.77-4.589-3.92-5.098-7.49-10.537-13.45-13.681-1.87-1.02-2.81-2.295-3.15-4.334-.34-2.125-.25-4.589-2.29-6.034-3.83-2.549-3.75-6.203-2.47-9.857 1.27-3.654 2.13-7.308 2.55-11.047.17-1.445.51-2.975 2.3-2.72 1.7.255 1.36 1.87 1.19 3.06-.34 1.954.43 3.059 2.38 2.549 2.22-.595 3.75.425 4.94 1.954 2.47 3.485 6.81 5.269 8.26 9.688.34 1.02 1.36.595 2.21.68 2.21.17 3.74 1.105 2.81 3.654-.51 1.36-.26 2.719.08 4.079.34 1.359 1.19 1.869 2.3.85 2.38-2.04 5.53-3.4 6.98-6.374 1.27-2.464 3.15-3.739 5.62-4.759 2.89-1.189 5.95-3.144 6.29-6.203.77-6.883 1.02-13.936-3.57-20.055-2.98-3.909-6.55-7.223-9.87-10.707-2.39-2.549-4.77-5.099-6.64-8.073-1.62-2.549-2.04-5.609-.17-8.073 2.21-2.804 4.85-5.354 7.66-7.563 3.74-2.889 7.74-1.19 8.59 3.399.26 1.615.94 2.974 2.73 2.889 1.7-.085 2.12-1.529 2.21-2.974.08-1.105-.09-2.464 1.36-2.889 2.38-.68 4.26-3.314 7.23-1.7.94.51 1.96-.51 2.73-1.275.85-.764 1.62-1.699 2.72-2.124 7.24-2.379 13.87-5.354 18.9-11.642 2.46-3.144 5.02-6.118 6.46-9.942 2.73-7.224 4.85-14.617 5.71-22.35.08-1.02.51-2.209-.52-2.974-.59-.425-1.19.17-1.7.51-.76.595-1.61 1.19-2.55.425-.94-.85-.17-1.785.17-2.635.51-1.274 1.45-2.719-.09-3.739-1.36-.849-2.04-1.614-1.44-3.229.34-.85-.34-1.614-.94-2.209-5.19-4.589-8.34-11.302-14.89-14.447-1.45-.679-1.62-1.869-.77-3.229 1.96-3.059 3.83-6.118 6.56-8.498.68-.594 1.27-1.019 2.29-.934.94.085 2.13.425 2.22-1.02.08-1.19-.68-2.21-1.88-2.295-4.25-.254-8.76-2.549-12.68 1.445-.93.935-2.72 1.445-3.23-.17-1.11-3.484-4.17-3.909-6.81-5.014-2.3-1.019-2.72-2.889-.6-3.824 3.75-1.614 5.96-4.503 8-7.733.43-.679 1.2-1.274 1.96-1.614 1.7-.68 3.66.85 2.81 2.294-1.7 3.144 1.28 5.439 1.02 8.243-.08.935 1.11.85 1.7.34 1.03-.85 2.13-1.785 2.98-2.804 1.45-1.785 3.49-2.38 5.62-2.55 3.15-.255 6.47 1.615 6.38 3.824-.17 4.844 1.87 7.309 6.64 7.733.6.085 1.19.425 1.79.51 2.04.425 3.83.85 2.72 3.654-.42 1.105.34 2.04 1.19 2.805 2.56 2.294 3.32 4.928 2.3 8.243-.77 2.549 1.7 5.013 4.26 4.164 3.23-1.02 6.46-2.04 9.1-4.249 1.62-1.36 1.96-2.635 1.36-4.674-1.87-6.204-4.59-11.472-10.89-14.362-1.7-.764-3.06-2.209-4.6-3.314-3.65-2.804-3.74-2.889-.51-5.948 2.05-1.955 3.41-3.824 2.9-7.138-.6-3.4.51-6.714 3.83-8.753 1.1-.68 2.21-.935 3.15 0 2.04 1.869 3.91 2.124 6.12.17 1.71-1.445 4.09-2.04 4.69-4.759 1.36-5.439 3.14-10.792 3.31-16.401.17-6.033 1.28-12.237-2.55-17.845-2.04-2.975-3.57-6.204-5.11-9.433-3.06-6.458-7.31-11.812-14.72-13.766-2.64-.68-5.28-1.36-7.06 1.529-.94 1.53-1.79 1.19-2.56-.085-1.44-2.124-2.89-4.334-4.42-6.543-.77 1.36.42 2.804-1.11 3.909-1.44-1.53-3.49-1.87-5.44-2.295-2.39-.509-2.9-1.529-1.11-3.399 2.72-2.804 4.59-5.948 4.42-10.112-.08-1.955.6-3.994 1.2-5.864.68-2.294 2.21-3.484 4.85-3.739 9.53-1.189 19.15-.849 28.76-1.104.94 0 1.96.085 2.64.849 1.28 1.615 3.07 1.615 4.85 1.615 2.73.085 5.28-.51 7.83-1.19.94-.255 2.47.17 2.73-1.019.25-1.36-1.37-1.7-2.22-2.38-.68-.51-1.44-.85-2.21-1.19-.85-.424-1.53-.934-1.19-1.954.85-2.209 1.36-4.419 1.62-6.713.08-1.02.93-1.36 1.87-1.36 4-.17 8.17-.765 10.55 3.739.34.595.94 1.19 1.53 1.615 1.28.849 2.64 2.889 4.34 1.019 1.62-1.869 5.02-3.144 3.07-6.628-.51-.85-1.02-1.784.17-2.464 1.19-.765 1.96 0 2.55 1.019 2.13 3.485 3.92 7.054 1.45 11.218-.94 1.444-.94 3.229-1.19 4.928-.26 2.635-1.03 4.929-3.49 6.459-.68.425-1.36 1.104-1.02 1.784 1.7 3.229 1.19 7.478 4.25 10.028 7.49 6.288 14.81 12.662 21.53 19.63 1.7 1.699 3.66 3.144 5.62 4.674.94.764 2.3 1.359 3.06.085 1.02-1.87 1.88-4.079.6-6.289-.6-1.105-1.87-1.784-1.45-3.314.43-1.53 2.3-.68 3.07-1.7-4.85-6.373-2.9-6.373.51-7.308-1.71-1.954-3.83-3.569-4.68-5.948-.26-.68-1.11-1.7.59-1.7 1.02 0 2.13-.255 2.13-1.359.08-1.19-1.28-1.19-2.13-1.53-2.21-1.02-5.44-1.36-6.13-3.569-1.1-3.824-3.83-4.079-6.72-4.419-1.28-.17-2.13-.68-2.3-1.785-.34-2.124-.08-4.418-1.78-6.203-.17-.17 0-.85.25-1.105 1.11-1.444 6.55-2.294 7.92-.934 1.61 1.614 2.72 1.104 4-.17 1.95-1.955 4.17-2.295 6.72-1.275 1.36.51 2.72 1.105 4.08 1.699 1.2.425 2.13.34 2.3-1.189.43-3.484 2.81-6.119 5.11-8.158 3.06-2.804 6.89-5.099 11.49-2.974 1.19.509 2.89 1.784 3.57.17.85-1.87-1.36-2.465-2.64-3.23-.42-.255-1.02-.425-1.44-.594-3.83-1.445-7.75-2.805-11.32-4.929-1.45-.85-2.04-1.445-.17-2.55 1.44-.849 2.89-1.954 2.38-4.079-.25-1.274.51-1.444 1.45-1.274 3.49.68 6.98 1.529 10.55 2.124 2.21.34 3.06 2.465 5.02 3.229 3.83 1.53 7.92 1.36 11.92 1.615 1.7-.935 1.44-2.464.85-3.484zm-667.32 49.542c.51-1.104 1.702-1.019 2.808-.765 2.638.51 5.447.425 7.404 2.805.766-1.105.426-1.955-.17-2.55-2.468-2.294-.596-3.059 1.277-3.569 5.361-1.444 6.212-2.719 5.532-8.328-.256-2.209.595-4.163 2.638-5.353 1.532-.935 3.149-1.785 4.596-2.804 2.212-1.615 2.212-2.805 0-4.419a23.463 23.463 0 00-2.468-1.445c-3.745-2.209-4.511-6.458-1.873-9.942 2.553-3.4 5.192-6.544 9.787-7.479 2.554-.509 4.171-2.209 4.256-5.183.085-2.805 1.957-4.334 4.766-4.589 2.212-.17 4.425-.255 6.638-.34.766 0 1.532.17 1.872.935.426.85-.17 1.359-.766 1.869-3.149 2.38-6.042 4.929-9.446 6.884-3.405 1.954-5.107 5.608-4 9.347.425 1.445.595 2.804.425 4.334-.255 3.994 5.532 7.818 10.128 6.119 5.276-1.87 10.893-1.105 16.17-2.975 1.447-.51 3.149 0 4.511.935.595.425.255 1.19-.171 1.7-1.361 1.614-2.893 3.314-5.106 2.464-4.426-1.615-8.511-.51-12.766.595-1.277.34-2.894.34-3.234 2.039-.255 1.53 1.021 2.21 2.043 2.89 1.702 1.274 2.638 2.889 1.787 4.928-.681 1.615-1.787 2.635-3.319.85-2.128-2.379-4.511-3.144-7.32-1.36-1.702 1.02-2.978 6.034-1.787 8.243 1.702 3.23.341 4.589-2.383 5.779-.936.425-1.872 1.02-2.723 1.614-1.958 1.275-3.66 1.53-4.936-1.019-.936-1.87-2.639-1.53-4.17-.935-3.32 1.36-6.469 3.059-9.873 4.164-2.298.765-4.17 1.36-5.532-1.53-1.021-2.124-2.723-.934-4.085-.17-1.362.68-2.383 2.125-4.51 1.615 1.361-1.87 3.148-3.314 4-5.354zM781.679 277.26c-.595 7.138-4.255 13.257-7.404 19.375-1.276 2.465-4 3.569-7.149 2.719-5.787-1.614-11.574-.849-17.106 1.02-2.553.85-4.851.255-7.064-.595-5.702-2.209-11.574-4.249-16.936-7.138-2.809-1.529-5.958-1.954-8.936-3.229-3.575-1.53-12 4.334-12.766 8.243-.17 1.105.255 2.039.766 2.974.596 1.19.766 2.21-.426 3.144-1.106.85-2.383 1.36-3.489.34-2.979-2.889-6.894-2.974-10.638-3.654-2.213-.425-4-1.189-5.532-2.804-4.256-4.589-9.192-7.818-15.83-7.393-1.192.085-2.213-.51-3.149-1.36-.936-.935-1.702-2.039-2.723-2.634-3.149-1.7-3.32-3.569-1.532-6.629 1.532-2.549 2.127-5.608-.341-8.242-.255-.255-.51-.765-.51-1.105.085-2.04.085-3.569-2.554-4.334-1.957-.595-3.659-1.105-5.702-.68-2.808.51-5.787.085-8.51.85-8.851 2.464-18.043 2.549-27.064 3.824-4.681.68-8.596 2.719-11.83 6.203-1.021 1.105-2.128 2.21-3.745 2.04-3.829-.255-7.574-.51-11.404-.935-1.191-.17-2.638-.34-2.894-1.954-.17-1.36.511-2.465 1.447-3.315 2.213-2.039 4.936-2.634 7.83-3.229 5.447-1.104 9.787-3.654 13.702-8.073 2.468-2.804 1.787-5.693 3.234-8.243 2.638-4.673 5.617-8.922 11.149-10.622 2.298-.68 3.66-2.294 3.83-4.929.255-4.079 2.383-5.778 6.553-5.353.17 0 .426 0 .596.085 6.638 3.654 11.149-.765 15.915-4.164 2.893-2.04 5.191-1.615 6.893 1.529 3.745 7.139 9.022 12.577 16.766 15.551 4.256 1.7 7.405 5.184 10.128 8.838 1.191 1.7.255 3.144-.766 4.334-1.532 1.7-2.638 4.334-5.787 3.569-2.468-.595-5.021-.765-7.575-.17-.851.17-1.787.255-1.872 1.36-.085 1.02.511 1.699 1.362 1.954 3.574 1.105 6.893 2.72 10.298 4.164 1.787.765 2.723-.085 2.638-1.869-.255-2.805.681-4.164 3.659-4.759 2.128-.425 2.724-3.059 3.915-4.759 1.532-2.124 1.022-3.909-.766-5.608-.68-.68-.851-1.445-.17-2.295.681-.85 1.532-1.444 2.724-1.19 2.042.425 3.659 1.36 4.766 3.825 1.021-3.57.255-6.119-2.554-6.714-5.447-1.274-9.021-5.948-14.383-7.393-1.957-.51-3.234-2.634-4.595-4.334-1.788-2.294-3.405-4.589-5.107-6.883-1.106-1.53-1.617-3.229-1.276-5.099.34-1.529 1.361-2.804 2.723-3.314 1.447-.595 1.872 1.105 2.383 2.04 4.681 7.818 11.404 13.171 19.489 17.08 1.873.935 3.66 2.125 5.447 3.229 2.468 1.53 2.979 3.909 2.724 6.629-.511 5.013 2.468 9.857 7.149 11.557 1.872.68 3.063 1.784 3.063 3.909 0 2.294 1.107 4.079 2.979 5.353 2.298 1.53 4.596.765 5.362-1.784.51-1.785 1.702-2.634 3.234-3.229 2.468-1.02 2.468-2.55 1.106-4.504a11.069 11.069 0 00-3.149-3.144c-1.106-.765-1.957-1.7-2.213-2.975-.255-1.104-.766-2.464.341-3.229 1.021-.68 1.617.68 2.298 1.19 1.361 1.19 2.212.765 3.064-.595.936-1.53 1.702-3.484 4-2.889 2.297.51 3.659 1.954 4.255 4.504 1.191 5.183 3.234 10.197 5.277 15.126.34.935 1.106 1.359 1.957 1.359 3.83.255 7.064 2.04 10.213 4.079 1.702 1.105 2.893 1.19 4.085-.934 1.106-2.125 4.51-2.04 7.234 0 3.659 2.719 4.936 2.804 8.851.51.34-.255.766-.425 1.106-.595 2.128-1.19 5.107-2.805 6.724-1.275 1.872 1.615 2.468 4.844 2.212 7.648zm20.852-36.626c-1.107 1.87-2.554 3.994-5.022 3.909-7.574-.509-15.319-.17-22.042-4.673-1.873-1.275-4-1.7-6.383-1.02-4.851 1.275-9.873 2.039-14.468 4.589-2.554 1.444-5.532-.51-8.256-1.19-1.532-.34-2.893-1.275-4.255-2.039-1.191-.68-1.191-1.615-1.362-3.06-.595-4.419 2.213-7.393 3.66-10.792 1.872-4.164 4.936-7.988 8.255-11.302.766-.765 1.702-.51 2.724-.17 1.361.51 2.808.935 4.255 1.275 1.617.34 2.042 1.019.851 2.379-.17.255-.426.51-.511.765-.255 1.274 6.298 6.798 7.319 6.118 2.383-1.699 5.192-2.294 7.83-3.229.511-.17 1.022-.425 1.107-1.02.085-.679-.596-.764-1.022-1.019-1.106-.68-3.234-.255-3.149-2.125.086-1.699 1.277-3.314 2.724-4.079 3.149-1.699 6.638-2.379 10.298-2.464-2.554 2.719-2.213 6.883-5.702 8.753-.937.509-.426 1.784.425 2.379a8.585 8.585 0 001.958 1.02c8 2.719 13.702 8.668 19.659 14.106.851.595 1.873 1.7 1.107 2.889zm58.893 26.854c-2.638.424-5.191.934-7.064 1.274-3.319-.085-5.617-.68-6.978-3.144-.851-1.445-1.873-1.7-3.405-1.445-1.872.34-3.404-.34-4.17-2.124-.766-1.785-.681-3.654.936-4.929 1.362-1.02 1.702-2.209 1.362-3.824-.34-1.19 0-2.294 1.106-3.059 1.788-1.36.936-2.634-.34-3.569-4.256-3.144-7.404-7.563-11.745-10.537-1.872-1.275-2.723-3.145-1.872-5.524.596-1.53.255-2.464-1.532-3.144-2.468-.935-2.894-2.975-1.191-5.014 1.531-1.7 2.978-3.399 5.531-3.994 2.809-.68 4-3.654 6.468-4.929 1.362-.68 2.554-2.464 4.171-2.039 2.468.765 5.106 1.699 7.149 3.229 1.702 1.19-.085 3.144-.341 4.674-.255 1.274-1.191 1.784-2.383 1.359-3.915-1.189-5.106 2.295-6.808 4.419-.851 1.02.425 2.38 1.532 3.06 3.489 2.209 5.872 5.863 9.532 7.818 1.702.934.936 2.549.936 3.994 0 1.019-.341 2.294.851 2.804 1.361.68 2.127-.425 2.808-1.36.766-1.02 1.532-2.039 2.724-.765 1.361 1.36 3.574 2.55 3.149 4.759-.256 1.53-2.128.935-3.32.935-1.276 0-2.893-1.105-3.744.51-.936 1.699.255 3.144 1.276 4.249 1.022 1.189 2.468 1.954 3.745 2.974 1.021.765 2.298 1.53 2.298 2.889 0 3.059-.17 6.034.936 9.008.341.935-.766 1.275-1.617 1.445z"/></g><circle opacity=".5" cx="289" cy="238" r="5" fill="#fff"/><path d="M316.898 232.2v9.8h-1.148l-5.88-7.308V242h-1.4v-9.8h1.148l5.88 7.308V232.2h1.4zm9.444 6.132c0 .102-.01.238-.028.406h-6.02c.084.653.368 1.18.854 1.582.494.392 1.106.588 1.834.588.886 0 1.6-.299 2.142-.896l.742.868c-.336.392-.756.69-1.26.896a4.316 4.316 0 01-1.666.308c-.784 0-1.48-.159-2.086-.476a3.543 3.543 0 01-1.414-1.358c-.327-.579-.49-1.232-.49-1.96 0-.719.158-1.368.476-1.946a3.464 3.464 0 011.33-1.344c.569-.327 1.208-.49 1.918-.49.709 0 1.339.163 1.89.49.56.317.994.765 1.302 1.344.317.578.476 1.241.476 1.988zm-3.668-2.688c-.644 0-1.186.196-1.624.588-.43.392-.682.905-.756 1.54h4.76c-.075-.626-.332-1.134-.77-1.526-.43-.402-.966-.602-1.61-.602zm16.625-1.064l-2.772 7.42h-1.288l-2.142-5.628-2.17 5.628h-1.288l-2.758-7.42h1.274l2.156 5.908 2.24-5.908h1.134l2.198 5.936 2.212-5.936h1.204zm9.072 4.032V242h-1.386v-3.416l-3.892-6.384h1.498l3.136 5.166 3.15-5.166h1.386l-3.892 6.412zm7.46 3.472c-.737 0-1.4-.164-1.988-.49a3.624 3.624 0 01-1.386-1.344c-.327-.579-.49-1.232-.49-1.96s.163-1.377.49-1.946a3.486 3.486 0 011.386-1.344c.588-.327 1.251-.49 1.988-.49.737 0 1.395.163 1.974.49a3.394 3.394 0 011.372 1.344c.336.569.504 1.218.504 1.946s-.168 1.381-.504 1.96a3.525 3.525 0 01-1.372 1.344c-.579.326-1.237.49-1.974.49zm0-1.176c.476 0 .901-.108 1.274-.322.383-.224.681-.532.896-.924.215-.402.322-.859.322-1.372 0-.514-.107-.966-.322-1.358a2.243 2.243 0 00-.896-.924 2.505 2.505 0 00-1.274-.322c-.476 0-.905.107-1.288.322a2.366 2.366 0 00-.896.924c-.215.392-.322.844-.322 1.358 0 .513.107.97.322 1.372.224.392.523.7.896.924.383.214.812.322 1.288.322zm6.997-5.082a2.29 2.29 0 011.036-.98c.457-.224 1.013-.336 1.666-.336v1.302a2.485 2.485 0 00-.308-.014c-.728 0-1.302.219-1.722.658-.411.429-.616 1.045-.616 1.848V242h-1.344v-7.42h1.288v1.246zm7.242 2.716l-1.54 1.428V242h-1.344v-10.388h1.344v6.664l4.046-3.696h1.624l-3.122 3.066 3.43 4.354h-1.652l-2.786-3.458zm-57.54 27.57c-1.306 0-2.324-.374-3.052-1.12-.728-.747-1.092-1.82-1.092-3.22V256.2h1.4v5.516c0 2.1.92 3.15 2.758 3.15.896 0 1.582-.257 2.058-.77.476-.523.714-1.316.714-2.38V256.2h1.358v5.572c0 1.409-.364 2.487-1.092 3.234-.728.737-1.745 1.106-3.052 1.106zm9.87 0a6.903 6.903 0 01-2.142-.336c-.681-.234-1.218-.532-1.61-.896l.518-1.092c.374.336.85.611 1.428.826a5.45 5.45 0 001.806.308c.812 0 1.419-.136 1.82-.406.402-.28.602-.649.602-1.106 0-.336-.112-.607-.336-.812a2.07 2.07 0 00-.812-.49c-.317-.112-.77-.238-1.358-.378a14.692 14.692 0 01-1.792-.532 3.062 3.062 0 01-1.162-.812c-.317-.374-.476-.873-.476-1.498 0-.523.136-.994.406-1.414.28-.42.7-.756 1.26-1.008s1.256-.378 2.086-.378a6.57 6.57 0 011.708.224c.56.149 1.041.364 1.442.644l-.462 1.12a4.844 4.844 0 00-1.316-.588 4.757 4.757 0 00-1.372-.21c-.793 0-1.39.144-1.792.434-.392.289-.588.662-.588 1.12 0 .336.112.611.336.826.224.205.5.368.826.49.336.112.789.233 1.358.364.738.177 1.33.354 1.778.532a2.93 2.93 0 011.148.812c.327.364.49.854.49 1.47 0 .513-.14.984-.42 1.414-.28.42-.704.756-1.274 1.008-.569.242-1.269.364-2.1.364zm12.084-2.562h-5.208l-1.078 2.45h-1.442l4.438-9.8h1.386l4.452 9.8h-1.47l-1.078-2.45zm-.49-1.12l-2.114-4.802-2.114 4.802h4.228z" fill="#fff"/><circle opacity=".5" cx="97" cy="353" r="5" fill="#fff"/><path d="M119.326 359.112a6.903 6.903 0 01-2.142-.336c-.681-.233-1.218-.532-1.61-.896l.518-1.092c.374.336.85.611 1.428.826a5.45 5.45 0 001.806.308c.812 0 1.419-.135 1.82-.406.402-.28.602-.649.602-1.106 0-.336-.112-.607-.336-.812a2.07 2.07 0 00-.812-.49c-.317-.112-.77-.238-1.358-.378a14.515 14.515 0 01-1.792-.532 3.051 3.051 0 01-1.162-.812c-.317-.373-.476-.873-.476-1.498 0-.523.136-.994.406-1.414.28-.42.7-.756 1.26-1.008s1.256-.378 2.086-.378c.579 0 1.148.075 1.708.224.56.149 1.041.364 1.442.644l-.462 1.12a4.906 4.906 0 00-1.316-.588 4.757 4.757 0 00-1.372-.21c-.793 0-1.39.145-1.792.434-.392.289-.588.663-.588 1.12 0 .336.112.611.336.826.224.205.5.369.826.49.336.112.789.233 1.358.364.738.177 1.33.355 1.778.532a2.93 2.93 0 011.148.812c.327.364.49.854.49 1.47 0 .513-.14.985-.42 1.414-.28.42-.704.756-1.274 1.008-.569.243-1.269.364-2.1.364zm8.346-7.602c1.026 0 1.81.252 2.352.756.55.504.826 1.255.826 2.254V359h-1.274v-.98a2.166 2.166 0 01-.966.798c-.411.177-.901.266-1.47.266-.831 0-1.498-.201-2.002-.602-.495-.401-.742-.929-.742-1.582s.238-1.176.714-1.568c.476-.401 1.232-.602 2.268-.602h2.128v-.266c0-.579-.168-1.022-.504-1.33-.336-.308-.831-.462-1.484-.462-.439 0-.868.075-1.288.224a3.21 3.21 0 00-1.064.574l-.56-1.008a3.97 3.97 0 011.372-.7 5.59 5.59 0 011.694-.252zm-.308 6.538c.513 0 .956-.112 1.33-.336a2 2 0 00.812-.98v-1.036h-2.072c-1.139 0-1.708.383-1.708 1.148 0 .373.144.667.434.882.289.215.69.322 1.204.322zm9.935-6.538c.942 0 1.689.275 2.24.826.56.541.84 1.339.84 2.394V359h-1.344v-4.116c0-.719-.173-1.26-.518-1.624-.346-.364-.84-.546-1.484-.546-.728 0-1.302.215-1.722.644-.42.42-.63 1.027-.63 1.82V359h-1.344v-7.42h1.288v1.12c.27-.383.634-.677 1.092-.882.466-.205.994-.308 1.582-.308zm10.923-1.092v3.416h4.914v1.204h-4.914V359h-1.4v-9.8h6.916v1.218h-5.516zm8.442 2.408a2.29 2.29 0 011.036-.98c.457-.224 1.012-.336 1.666-.336v1.302a2.712 2.712 0 00-.308-.014c-.728 0-1.302.219-1.722.658-.411.429-.616 1.045-.616 1.848V359h-1.344v-7.42h1.288v1.246zm7.047-1.316c1.026 0 1.81.252 2.352.756.55.504.826 1.255.826 2.254V359h-1.274v-.98a2.166 2.166 0 01-.966.798c-.411.177-.901.266-1.47.266-.831 0-1.498-.201-2.002-.602-.495-.401-.742-.929-.742-1.582s.238-1.176.714-1.568c.476-.401 1.232-.602 2.268-.602h2.128v-.266c0-.579-.168-1.022-.504-1.33-.336-.308-.831-.462-1.484-.462-.439 0-.868.075-1.288.224a3.21 3.21 0 00-1.064.574l-.56-1.008a3.97 3.97 0 011.372-.7 5.59 5.59 0 011.694-.252zm-.308 6.538c.513 0 .956-.112 1.33-.336a2 2 0 00.812-.98v-1.036h-2.072c-1.139 0-1.708.383-1.708 1.148 0 .373.144.667.434.882.289.215.69.322 1.204.322zm9.935-6.538c.942 0 1.689.275 2.24.826.56.541.84 1.339.84 2.394V359h-1.344v-4.116c0-.719-.173-1.26-.518-1.624-.346-.364-.84-.546-1.484-.546-.728 0-1.302.215-1.722.644-.42.42-.63 1.027-.63 1.82V359h-1.344v-7.42h1.288v1.12c.27-.383.634-.677 1.092-.882.466-.205.994-.308 1.582-.308zm8.842 7.574c-.756 0-1.433-.163-2.03-.49a3.624 3.624 0 01-1.386-1.344c-.336-.579-.504-1.232-.504-1.96s.168-1.377.504-1.946A3.486 3.486 0 01180.15 352c.597-.327 1.274-.49 2.03-.49.672 0 1.269.135 1.792.406.532.271.943.663 1.232 1.176l-1.022.658a2.278 2.278 0 00-.868-.798 2.479 2.479 0 00-1.148-.266c-.485 0-.924.107-1.316.322a2.345 2.345 0 00-.91.924c-.215.392-.322.845-.322 1.358 0 .523.107.985.322 1.386.224.392.527.695.91.91.392.215.831.322 1.316.322.42 0 .803-.089 1.148-.266.345-.177.635-.443.868-.798l1.022.644c-.289.513-.7.91-1.232 1.19-.523.271-1.12.406-1.792.406zm4.764-7.504h1.344V359h-1.344v-7.42zm.672-1.428a.92.92 0 01-.658-.252.837.837 0 01-.252-.616c0-.243.084-.448.252-.616a.895.895 0 01.658-.266c.261 0 .476.084.644.252a.774.774 0 01.266.602.878.878 0 01-.266.644.873.873 0 01-.644.252zm5.366 8.932a6.38 6.38 0 01-1.75-.238c-.56-.168-.998-.378-1.316-.63l.56-1.064c.327.233.724.42 1.19.56.467.14.938.21 1.414.21 1.176 0 1.764-.336 1.764-1.008a.652.652 0 00-.238-.532 1.43 1.43 0 00-.602-.28 10.731 10.731 0 00-1.008-.21 10.229 10.229 0 01-1.47-.322 2.264 2.264 0 01-.966-.616c-.27-.289-.406-.695-.406-1.218 0-.672.28-1.209.84-1.61.56-.411 1.312-.616 2.254-.616.495 0 .99.061 1.484.182.495.121.901.285 1.218.49l-.574 1.064c-.606-.392-1.32-.588-2.142-.588-.569 0-1.003.093-1.302.28-.298.187-.448.434-.448.742 0 .243.084.434.252.574.168.14.374.243.616.308.252.065.602.14 1.05.224.598.103 1.078.215 1.442.336a2.1 2.1 0 01.952.588c.262.28.392.672.392 1.176 0 .672-.289 1.209-.868 1.61-.569.392-1.348.588-2.338.588zm8.12 0c-.756 0-1.433-.163-2.03-.49a3.624 3.624 0 01-1.386-1.344c-.336-.579-.504-1.232-.504-1.96s.168-1.377.504-1.946a3.486 3.486 0 011.386-1.344c.597-.327 1.274-.49 2.03-.49.672 0 1.269.135 1.792.406.532.271.943.663 1.232 1.176l-1.022.658a2.278 2.278 0 00-.868-.798 2.479 2.479 0 00-1.148-.266c-.485 0-.924.107-1.316.322a2.345 2.345 0 00-.91.924c-.215.392-.322.845-.322 1.358 0 .523.107.985.322 1.386.224.392.527.695.91.91.392.215.831.322 1.316.322.42 0 .803-.089 1.148-.266.345-.177.635-.443.868-.798l1.022.644c-.289.513-.7.91-1.232 1.19-.523.271-1.12.406-1.792.406zm7.833 0c-.738 0-1.4-.163-1.988-.49a3.624 3.624 0 01-1.386-1.344c-.327-.579-.49-1.232-.49-1.96s.163-1.377.49-1.946a3.486 3.486 0 011.386-1.344c.588-.327 1.25-.49 1.988-.49.737 0 1.395.163 1.974.49a3.394 3.394 0 011.372 1.344c.336.569.504 1.218.504 1.946s-.168 1.381-.504 1.96a3.525 3.525 0 01-1.372 1.344c-.579.327-1.237.49-1.974.49zm0-1.176c.476 0 .9-.107 1.274-.322.382-.224.681-.532.896-.924.214-.401.322-.859.322-1.372 0-.513-.108-.966-.322-1.358a2.26 2.26 0 00-.896-.924 2.508 2.508 0 00-1.274-.322c-.476 0-.906.107-1.288.322a2.372 2.372 0 00-.896.924c-.215.392-.322.845-.322 1.358 0 .513.107.971.322 1.372.224.392.522.7.896.924.382.215.812.322 1.288.322zm-88.405 25.204c-1.306 0-2.324-.373-3.052-1.12-.728-.747-1.092-1.82-1.092-3.22V373.2h1.4v5.516c0 2.1.92 3.15 2.758 3.15.896 0 1.582-.257 2.058-.77.476-.523.714-1.316.714-2.38V373.2h1.358v5.572c0 1.409-.364 2.487-1.092 3.234-.728.737-1.745 1.106-3.052 1.106zm9.87 0a6.903 6.903 0 01-2.142-.336c-.681-.233-1.218-.532-1.61-.896l.518-1.092c.374.336.85.611 1.428.826a5.45 5.45 0 001.806.308c.812 0 1.419-.135 1.82-.406.402-.28.602-.649.602-1.106 0-.336-.112-.607-.336-.812a2.07 2.07 0 00-.812-.49c-.317-.112-.77-.238-1.358-.378a14.515 14.515 0 01-1.792-.532 3.051 3.051 0 01-1.162-.812c-.317-.373-.476-.873-.476-1.498 0-.523.136-.994.406-1.414.28-.42.7-.756 1.26-1.008s1.256-.378 2.086-.378c.579 0 1.148.075 1.708.224.56.149 1.041.364 1.442.644l-.462 1.12a4.906 4.906 0 00-1.316-.588 4.757 4.757 0 00-1.372-.21c-.793 0-1.39.145-1.792.434-.392.289-.588.663-.588 1.12 0 .336.112.611.336.826.224.205.5.369.826.49.336.112.789.233 1.358.364.738.177 1.33.355 1.778.532a2.93 2.93 0 011.148.812c.327.364.49.854.49 1.47 0 .513-.14.985-.42 1.414-.28.42-.704.756-1.274 1.008-.569.243-1.269.364-2.1.364zm12.084-2.562h-5.208l-1.078 2.45h-1.442l4.438-9.8h1.386l4.452 9.8h-1.47l-1.078-2.45zm-.49-1.12l-2.114-4.802-2.114 4.802h4.228z" fill="#fff"/><circle opacity=".5" cx="1099" cy="410" r="5" fill="#fff"/><path d="M1131.06 409.918c.57.159 1.02.448 1.35.868.32.411.49.933.49 1.568 0 .849-.32 1.503-.97 1.96-.63.457-1.56.686-2.78.686h-4.68v-9.8h4.4c1.12 0 1.98.224 2.59.672.61.448.92 1.069.92 1.862 0 .513-.12.957-.36 1.33a2.29 2.29 0 01-.96.854zm-5.19-3.584v3.136h2.87c.72 0 1.27-.131 1.65-.392.39-.271.59-.663.59-1.176 0-.513-.2-.901-.59-1.162-.38-.271-.93-.406-1.65-.406h-2.87zm3.22 7.532c.79 0 1.39-.131 1.79-.392.4-.261.6-.672.6-1.232 0-1.092-.79-1.638-2.39-1.638h-3.22v3.262h3.22zm8.48-6.356c1.03 0 1.81.252 2.35.756.55.504.83 1.255.83 2.254V415h-1.27v-.98a2.21 2.21 0 01-.97.798c-.41.177-.9.266-1.47.266-.83 0-1.5-.201-2-.602-.5-.401-.74-.929-.74-1.582s.23-1.176.71-1.568c.48-.401 1.23-.602 2.27-.602h2.13v-.266c0-.579-.17-1.022-.51-1.33-.33-.308-.83-.462-1.48-.462-.44 0-.87.075-1.29.224a3.2 3.2 0 00-1.06.574l-.56-1.008a3.96 3.96 0 011.37-.7 5.545 5.545 0 011.69-.252zm-.31 6.538c.52 0 .96-.112 1.33-.336.38-.233.65-.56.82-.98v-1.036h-2.08c-1.13 0-1.7.383-1.7 1.148 0 .373.14.667.43.882.29.215.69.322 1.2.322zm9.94-6.538c.94 0 1.69.275 2.24.826.56.541.84 1.339.84 2.394V415h-1.34v-4.116c0-.719-.18-1.26-.52-1.624-.35-.364-.84-.546-1.49-.546-.72 0-1.3.215-1.72.644-.42.42-.63 1.027-.63 1.82V415h-1.34v-7.42h1.29v1.12c.27-.383.63-.677 1.09-.882.46-.205.99-.308 1.58-.308zm12.71.07v6.412c0 1.297-.33 2.254-.97 2.87-.64.625-1.61.938-2.88.938-.7 0-1.37-.098-2.01-.294-.63-.187-1.14-.457-1.54-.812l.65-1.036c.34.299.77.532 1.27.7a4.8 4.8 0 001.58.266c.87 0 1.51-.205 1.92-.616.42-.411.63-1.036.63-1.876v-.588c-.32.383-.71.672-1.17.868-.46.187-.96.28-1.5.28-.71 0-1.36-.149-1.93-.448a3.5 3.5 0 01-1.35-1.274c-.33-.551-.49-1.176-.49-1.876s.16-1.321.49-1.862c.33-.551.78-.975 1.35-1.274.57-.299 1.22-.448 1.93-.448.56 0 1.08.103 1.55.308.49.205.88.509 1.19.91v-1.148h1.28zm-3.87 5.936c.49 0 .92-.103 1.3-.308.4-.205.7-.49.91-.854.23-.373.34-.793.34-1.26 0-.719-.24-1.297-.71-1.736-.48-.448-1.09-.672-1.84-.672s-1.37.224-1.85.672c-.47.439-.71 1.017-.71 1.736 0 .467.11.887.32 1.26.23.364.53.649.91.854.39.205.84.308 1.33.308zm9.32-1.974l-1.54 1.428V415h-1.35v-10.388h1.35v6.664l4.04-3.696h1.63l-3.12 3.066 3.43 4.354h-1.66l-2.78-3.458zm8.6 3.542c-.73 0-1.4-.163-1.98-.49a3.649 3.649 0 01-1.39-1.344c-.33-.579-.49-1.232-.49-1.96s.16-1.377.49-1.946c.34-.579.8-1.027 1.39-1.344.58-.327 1.25-.49 1.98-.49.74 0 1.4.163 1.98.49.59.317 1.04.765 1.37 1.344.34.569.5 1.218.5 1.946s-.16 1.381-.5 1.96a3.526 3.526 0 01-1.37 1.344c-.58.327-1.24.49-1.98.49zm0-1.176c.48 0 .9-.107 1.28-.322.38-.224.68-.532.89-.924.22-.401.33-.859.33-1.372 0-.513-.11-.966-.33-1.358a2.229 2.229 0 00-.89-.924c-.38-.215-.8-.322-1.28-.322-.47 0-.9.107-1.28.322-.38.215-.68.523-.9.924-.21.392-.32.845-.32 1.358 0 .513.11.971.32 1.372.22.392.52.7.9.924.38.215.81.322 1.28.322zm8.6-2.366l-1.54 1.428V415h-1.35v-10.388h1.35v6.664l4.04-3.696h1.63l-3.13 3.066 3.43 4.354h-1.65l-2.78-3.458zm-56.14 18.876h-3.36V429.2h8.1v1.218h-3.36V439h-1.38v-8.582zm10.03 1.092c.95 0 1.69.275 2.24.826.56.541.84 1.339.84 2.394V439h-1.34v-4.116c0-.719-.17-1.26-.52-1.624-.34-.364-.84-.546-1.48-.546-.73 0-1.31.215-1.73.644-.42.42-.63 1.027-.63 1.82V439h-1.34v-10.388h1.34v4.018c.28-.355.65-.63 1.1-.826a3.78 3.78 0 011.52-.294zm8.27 0c1.03 0 1.81.252 2.35.756.55.504.83 1.255.83 2.254V439h-1.27v-.98a2.21 2.21 0 01-.97.798c-.41.177-.9.266-1.47.266-.83 0-1.5-.201-2-.602-.5-.401-.74-.929-.74-1.582s.23-1.176.71-1.568c.48-.401 1.23-.602 2.27-.602h2.13v-.266c0-.579-.17-1.022-.51-1.33-.33-.308-.83-.462-1.48-.462-.44 0-.87.075-1.29.224a3.2 3.2 0 00-1.06.574l-.56-1.008a3.96 3.96 0 011.37-.7 5.545 5.545 0 011.69-.252zm-.31 6.538c.52 0 .96-.112 1.33-.336.38-.233.65-.56.82-.98v-1.036h-2.08c-1.13 0-1.7.383-1.7 1.148 0 .373.14.667.43.882.29.215.69.322 1.2.322zm5.98-6.468h1.34V439h-1.34v-7.42zm.67-1.428a.932.932 0 01-.66-.252.828.828 0 01-.25-.616c0-.243.08-.448.25-.616.18-.177.4-.266.66-.266s.48.084.64.252c.18.159.27.359.27.602a.87.87 0 01-.27.644c-.16.168-.38.252-.64.252zm3.24-1.54h1.34V439h-1.34v-10.388zm6.61 2.898c1.03 0 1.81.252 2.35.756.55.504.83 1.255.83 2.254V439h-1.28v-.98c-.22.345-.54.611-.96.798-.41.177-.9.266-1.47.266-.83 0-1.5-.201-2-.602-.5-.401-.75-.929-.75-1.582s.24-1.176.72-1.568c.47-.401 1.23-.602 2.27-.602h2.12v-.266c0-.579-.16-1.022-.5-1.33-.34-.308-.83-.462-1.48-.462-.44 0-.87.075-1.29.224-.42.14-.78.331-1.07.574l-.56-1.008a4.01 4.01 0 011.38-.7 5.545 5.545 0 011.69-.252zm-.31 6.538c.52 0 .96-.112 1.33-.336.38-.233.65-.56.81-.98v-1.036h-2.07c-1.14 0-1.71.383-1.71 1.148 0 .373.15.667.44.882.29.215.69.322 1.2.322zm9.94-6.538c.94 0 1.69.275 2.24.826.56.541.84 1.339.84 2.394V439h-1.35v-4.116c0-.719-.17-1.26-.52-1.624-.34-.364-.84-.546-1.48-.546-.73 0-1.3.215-1.72.644-.42.42-.63 1.027-.63 1.82V439h-1.35v-7.42h1.29v1.12c.27-.383.64-.677 1.09-.882.47-.205 1-.308 1.59-.308zm12.61-2.898V439h-1.29v-1.176c-.3.411-.68.723-1.14.938-.45.215-.96.322-1.51.322-.72 0-1.36-.159-1.93-.476a3.414 3.414 0 01-1.34-1.33c-.32-.579-.48-1.241-.48-1.988 0-.747.16-1.405.48-1.974.32-.569.77-1.013 1.34-1.33.57-.317 1.21-.476 1.93-.476.53 0 1.02.103 1.47.308.45.196.82.49 1.12.882v-4.088h1.35zm-3.83 9.296c.47 0 .89-.107 1.28-.322.38-.224.68-.532.89-.924.22-.401.33-.859.33-1.372 0-.513-.11-.966-.33-1.358a2.229 2.229 0 00-.89-.924 2.589 2.589 0 00-1.28-.322c-.47 0-.9.107-1.28.322-.38.215-.68.523-.9.924-.22.392-.32.845-.32 1.358 0 .513.1.971.32 1.372.22.392.52.7.9.924.38.215.81.322 1.28.322z" fill="#fff"/></svg>